<?xml version="1.0" encoding="UTF-8" standalone="no"?>
<!-- Created with Inkscape (http://www.inkscape.org/) -->

<svg
   width="101.88585mm"
   height="52.999973mm"
   viewBox="0 0 101.88585 52.999973"
   version="1.1"
   id="svg1"
   inkscape:export-filename="coming-soon-neon.svg"
   inkscape:export-xdpi="96"
   inkscape:export-ydpi="96"
   xmlns:inkscape="http://www.inkscape.org/namespaces/inkscape"
   xmlns:sodipodi="http://sodipodi.sourceforge.net/DTD/sodipodi-0.dtd"
   xmlns="http://www.w3.org/2000/svg"
   xmlns:svg="http://www.w3.org/2000/svg">
  <sodipodi:namedview
     id="namedview1"
     pagecolor="#ffffff"
     bordercolor="#000000"
     borderopacity="0.25"
     inkscape:showpageshadow="2"
     inkscape:pageopacity="0.0"
     inkscape:pagecheckerboard="0"
     inkscape:deskcolor="#d1d1d1"
     inkscape:document-units="px"
     inkscape:zoom="1.4142136"
     inkscape:cx="317.8445"
     inkscape:cy="412.95036"
     inkscape:window-width="1920"
     inkscape:window-height="991"
     inkscape:window-x="-9"
     inkscape:window-y="-9"
     inkscape:window-maximized="1"
     inkscape:current-layer="layer1" />
  <defs
     id="defs1">
    <filter
       inkscape:collect="always"
       style="color-interpolation-filters:sRGB"
       id="filter5"
       x="-0.059276912"
       y="-0.30646562"
       width="1.1185538"
       height="1.6129312">
      <feGaussianBlur
         inkscape:collect="always"
         stdDeviation="1.6985202"
         id="feGaussianBlur5" />
    </filter>
    <filter
       inkscape:collect="always"
       style="color-interpolation-filters:sRGB"
       id="filter6"
       x="-0.038808461"
       y="-0.20064762"
       width="1.0776169"
       height="1.4012952">
      <feGaussianBlur
         inkscape:collect="always"
         stdDeviation="1.087054"
         id="feGaussianBlur6" />
    </filter>
    <filter
       inkscape:collect="always"
       style="color-interpolation-filters:sRGB"
       id="filter7"
       x="-0.021920581"
       y="-0.11333129"
       width="1.0438412"
       height="1.2266626">
      <feGaussianBlur
         inkscape:collect="always"
         stdDeviation="0.61147013"
         id="feGaussianBlur7" />
    </filter>
    <filter
       inkscape:collect="always"
       style="color-interpolation-filters:sRGB"
       id="filter8"
       x="-0.067918449"
       y="-0.24949818"
       width="1.1362565"
       height="1.4989964">
      <feGaussianBlur
         inkscape:collect="always"
         stdDeviation="1.2803318"
         id="feGaussianBlur8" />
    </filter>
    <filter
       inkscape:collect="always"
       style="color-interpolation-filters:sRGB"
       id="filter9"
       x="-0.044981918"
       y="-0.16413077"
       width="1.0899638"
       height="1.3282615">
      <feGaussianBlur
         inkscape:collect="always"
         stdDeviation="0.819075"
         id="feGaussianBlur9" />
    </filter>
    <filter
       inkscape:collect="always"
       style="color-interpolation-filters:sRGB"
       id="filter10"
       x="-0.025430837"
       y="-0.092795566"
       width="1.0508617"
       height="1.1855911">
      <feGaussianBlur
         inkscape:collect="always"
         stdDeviation="0.46072294"
         id="feGaussianBlur10" />
    </filter>
  </defs>
  <g
     inkscape:label="Layer 1"
     inkscape:groupmode="layer"
     id="layer1"
     transform="translate(-54.057073,-122)">
    <g
       id="g13">
      <g
         id="g11">
        <path
           style="font-size:23.9703px;font-family:KosanNonCommercial;-inkscape-font-specification:KosanNonCommercial;text-align:center;text-anchor:middle;opacity:0.7;mix-blend-mode:normal;fill:#a817e1;fill-opacity:1;stroke:#a817e1;stroke-width:2.64583;stroke-linecap:round;stroke-linejoin:bevel;stroke-dasharray:none;stroke-opacity:1;filter:url(#filter5)"
           d="m 73.215389,141.42199 c -0.311614,-0.21573 -0.767049,-0.14382 -1.006752,0.1678 -0.479406,0.57528 -1.054694,1.03072 -1.701892,1.31836 -0.81499,0.4075 -1.701891,0.59926 -2.636733,0.59926 -1.030723,0 -1.965565,-0.19176 -2.780555,-0.59926 -0.83896,-0.38352 -1.534099,-0.91087 -2.109386,-1.58204 -0.575287,-0.67116 -1.030723,-1.43821 -1.342337,-2.32512 -0.311614,-0.8869 -0.455436,-1.82174 -0.455436,-2.80452 0,-0.95881 0.143822,-1.89365 0.455436,-2.78056 0.311614,-0.8869 0.76705,-1.65395 1.342337,-2.32511 0.575287,-0.67117 1.270426,-1.19852 2.109386,-1.58204 0.81499,-0.4075 1.749832,-0.59926 2.780555,-0.59926 0.934842,0 1.821743,0.19176 2.636733,0.59926 0.647198,0.28764 1.222486,0.74307 1.701892,1.31836 0.239703,0.31162 0.695138,0.38353 1.006752,0.16779 0.383525,-0.26367 0.455436,-0.79102 0.167792,-1.1266 -0.143822,-0.19176 -0.311614,-0.35955 -0.479406,-0.52735 -0.383525,-0.38352 -0.83896,-0.71911 -1.342337,-1.00675 -0.527346,-0.28764 -1.078663,-0.52734 -1.701891,-0.69514 -0.599257,-0.16779 -1.270426,-0.2397 -2.013505,-0.2397 -1.222486,0 -2.325119,0.21574 -3.355842,0.6472 -1.054694,0.45543 -1.941595,1.05469 -2.684674,1.84572 -0.743079,0.79101 -1.318366,1.70188 -1.725862,2.78055 -0.431465,1.07866 -0.623227,2.2532 -0.623227,3.52363 0,1.29441 0.191762,2.46894 0.623227,3.5476 0.407496,1.07867 0.982783,1.98955 1.725862,2.78056 0.743079,0.79102 1.62998,1.39028 2.684674,1.84571 1.030723,0.43147 2.133356,0.6472 3.355842,0.6472 0.743079,0 1.414248,-0.0719 2.013505,-0.23969 0.623228,-0.1678 1.174545,-0.40751 1.701891,-0.69515 0.503377,-0.28765 0.958812,-0.62323 1.342337,-1.00675 0.167792,-0.1678 0.335584,-0.33559 0.479406,-0.52735 0.287644,-0.33559 0.215733,-0.86293 -0.167792,-1.12661 z m 17.881842,-8.74915 c -0.431465,-1.07867 -1.006753,-1.98954 -1.749832,-2.78056 -0.76705,-0.79102 -1.653951,-1.39028 -2.684674,-1.84571 -0.671168,-0.28765 -1.366307,-0.47941 -2.133356,-0.57529 -0.431466,-0.0719 -0.838961,0.28764 -0.838961,0.74308 v 0.024 c 0,0.38352 0.287644,0.69514 0.647198,0.74308 0.647198,0.0719 1.246456,0.26367 1.797773,0.52735 0.81499,0.38352 1.510129,0.91087 2.085416,1.58204 0.599257,0.67116 1.030723,1.46218 1.342337,2.34908 0.287643,0.86294 0.455435,1.79778 0.455435,2.78056 0,0.98278 -0.167792,1.91762 -0.455435,2.78055 -0.311614,0.88691 -0.74308,1.67793 -1.342337,2.32512 -0.575287,0.67117 -1.270426,1.19852 -2.085416,1.58204 -0.838961,0.4075 -1.773802,0.59926 -2.804525,0.59926 -1.030723,0 -1.965565,-0.19176 -2.780555,-0.59926 -0.838961,-0.38352 -1.5341,-0.91087 -2.109387,-1.58204 -0.575287,-0.64719 -1.030723,-1.43821 -1.318366,-2.32512 -0.311614,-0.86293 -0.455436,-1.79777 -0.455436,-2.78055 0,-0.98278 0.143822,-1.91762 0.455436,-2.78056 0.287643,-0.8869 0.743079,-1.67792 1.318366,-2.34908 0.575287,-0.67117 1.270426,-1.19852 2.109387,-1.58204 0.551317,-0.26368 1.126604,-0.45544 1.773802,-0.52735 0.383525,-0.0479 0.647198,-0.35956 0.647198,-0.74308 v -0.024 c 0,-0.45544 -0.383525,-0.81499 -0.83896,-0.74308 -0.74308,0.0959 -1.462189,0.28764 -2.133357,0.57529 -1.030723,0.45543 -1.917624,1.05469 -2.660704,1.84571 -0.767049,0.79102 -1.342336,1.70189 -1.773802,2.78056 -0.431465,1.07866 -0.623228,2.2532 -0.623228,3.5476 0,1.27043 0.191763,2.44497 0.623228,3.52363 0.431466,1.07867 1.006753,1.98954 1.773802,2.78056 0.74308,0.79102 1.629981,1.39028 2.660704,1.84571 1.030723,0.43147 2.133357,0.6472 3.331872,0.6472 1.198515,0 2.325119,-0.21573 3.331871,-0.6472 1.030723,-0.45543 1.917624,-1.05469 2.684674,-1.84571 0.743079,-0.79102 1.318367,-1.70189 1.749832,-2.78056 0.431465,-1.07866 0.647198,-2.2532 0.647198,-3.52363 0,-1.2944 -0.215733,-2.46894 -0.647198,-3.5476 z m 18.121559,-4.86598 c -0.62323,0 -1.17455,0.38353 -1.39028,0.95882 l -5.00979,12.84808 -0.74308,1.94159 c -0.0479,0.14382 -0.0959,0.43147 0,0.67117 0.0959,0.2397 0.40749,0.35955 0.67116,0.35955 0.26368,0 0.50338,-0.14382 0.59926,-0.38352 l 5.68096,-14.19042 h 0.024 v 13.75895 c 0,0.45544 0.38353,0.81499 0.83896,0.81499 0.45544,0 0.81499,-0.35955 0.81499,-0.81499 v -14.45409 c 0,-0.83896 -0.67116,-1.51012 -1.48615,-1.51012 z m -6.92742,13.23161 c 0.0719,-0.19176 0.0719,-0.38352 0,-0.55132 l -4.602297,-11.72147 c -0.239703,-0.57529 -0.79102,-0.95882 -1.390277,-0.95882 -0.838961,0 -1.486159,0.67117 -1.486159,1.51013 v 14.45409 c 0,0.45544 0.359554,0.81499 0.81499,0.81499 0.455436,0 0.81499,-0.35955 0.81499,-0.81499 v -13.75895 h 0.04794 l 4.410533,11.02634 c 0.2397,0.6472 1.15058,0.62323 1.39028,0 z m 13.03985,-13.23161 c -0.45543,0 -0.81499,0.38353 -0.81499,0.83896 v 15.12526 c 0,0.45544 0.35956,0.81499 0.81499,0.81499 0.45544,0 0.81499,-0.35955 0.81499,-0.81499 v -15.12526 c 0,-0.45543 -0.35955,-0.83895 -0.81499,-0.83896 z m 7.04726,0.62323 c -0.23971,-0.38352 -0.6472,-0.62323 -1.10264,-0.62323 -0.74308,0 -1.31836,0.59926 -1.31836,1.34234 v 14.62188 c 0,0.45544 0.35955,0.81499 0.81499,0.81499 0.45543,0 0.81499,-0.35955 0.81499,-0.81499 v -13.61513 h 0.0479 l 7.55064,11.64957 c 0.45544,0.67117 1.5341,0.35955 1.5341,-0.45544 0,-0.16779 -0.0479,-0.33558 -0.14382,-0.45543 z m 9.87576,-0.62323 c -0.45544,0 -0.83896,0.38353 -0.83896,0.83896 v 15.12526 c 0,0.45544 0.38352,0.81499 0.83896,0.81499 v 0 c 0.45544,0 0.81499,-0.35955 0.81499,-0.81499 v -15.12526 c 0,-0.45543 -0.35955,-0.83895 -0.81499,-0.83896 z m 11.96116,8.74916 v 0 c 0,0.43147 0.33559,0.76705 0.76705,0.76705 h 3.23599 v 0 h 1.55807 c 0.43147,0 0.76705,-0.33558 0.76705,-0.76705 0,-0.40749 -0.33558,-0.74308 -0.76705,-0.74308 h -4.79406 c -0.43146,0 -0.76705,0.33559 -0.76705,0.74308 z m 5.51317,1.46219 h -0.024 c -0.43146,0 -0.79102,0.38353 -0.79102,0.81499 v 3.59555 c -0.4794,0.31161 -1.10263,0.57528 -1.84571,0.76705 -0.76705,0.21573 -1.60601,0.31161 -2.51688,0.31161 -1.03073,0 -1.96557,-0.19176 -2.78056,-0.59926 -0.83896,-0.38352 -1.5341,-0.91087 -2.10938,-1.58204 -0.57529,-0.64719 -1.03073,-1.43821 -1.34234,-2.32512 -0.31162,-0.86293 -0.45544,-1.79777 -0.45544,-2.78055 0,-0.98278 0.14382,-1.91762 0.45544,-2.78056 0.31161,-0.8869 0.76705,-1.67792 1.34234,-2.34908 0.57528,-0.67117 1.27042,-1.19852 2.10938,-1.58204 0.81499,-0.4075 1.74983,-0.59926 2.78056,-0.59926 1.00675,0 1.89365,0.16779 2.6607,0.50337 0.33558,0.14383 0.6472,0.33559 0.95881,0.52735 0.33559,0.21573 0.76705,0.16779 1.03073,-0.11985 0.35955,-0.35956 0.28764,-0.95881 -0.14383,-1.22249 -0.35955,-0.2397 -0.74308,-0.43146 -1.15057,-0.59925 -0.95881,-0.4075 -2.08542,-0.59926 -3.37981,-0.59926 -1.19852,0 -2.30115,0.21574 -3.33188,0.6472 -1.03072,0.45543 -1.91762,1.05469 -2.6607,1.84571 -0.76705,0.79102 -1.34234,1.70189 -1.7738,2.78056 -0.43147,1.07866 -0.62323,2.2532 -0.62323,3.5476 0,1.27043 0.19176,2.44497 0.62323,3.52363 0.40749,1.07867 0.98278,1.98954 1.72586,2.78056 0.74308,0.79102 1.62998,1.39028 2.68467,1.84571 1.03073,0.43147 2.13336,0.6472 3.35585,0.6472 1.10263,0 2.15732,-0.11985 3.16408,-0.4075 0.86293,-0.21573 1.65395,-0.52734 2.421,-0.95881 0.26367,-0.16779 0.43146,-0.45543 0.43146,-0.76705 v -4.05098 c 0,-0.43146 -0.35955,-0.81499 -0.81499,-0.81499 z"
           id="text1"
           aria-label="COMING" />
        <path
           d="m 73.215199,141.42236 c -0.3116,-0.216 -0.7671,-0.144 -1.0068,0.168 h -2e-4 c -0.4794,0.575 -1.0546,1.03 -1.7017,1.318 h -4e-4 c -0.8148,0.408 -1.7016,0.599 -2.6363,0.599 h -5e-4 c -1.0305,0 -1.9652,-0.192 -2.78,-0.599 h -5e-4 c -0.8387,-0.384 -1.5337,-0.911 -2.1089,-1.582 h -3e-4 c -0.5752,-0.671 -1.0305,-1.438 -1.3421,-2.325 l -10e-5,-0.001 c -0.3115,-0.886 -0.4553,-1.821 -0.4553,-2.804 v 0 c 0,-0.959 0.1439,-1.893 0.4554,-2.78 l 2e-4,-0.001 c 0.3116,-0.886 0.767,-1.653 1.3422,-2.324 l 2e-4,-0.001 c 0.5753,-0.671 1.2703,-1.198 2.1092,-1.581 l 4e-4,-10e-4 c 0.8148,-0.407 1.7496,-0.599 2.7801,-0.599 h 5e-4 c 0.9346,0 1.8214,0.192 2.6362,0.6 h 4e-4 c 0.647,0.287 1.2222,0.743 1.7015,1.318 h 3e-4 c 0.2397,0.312 0.695,0.383 1.0065,0.168 l 4e-4,-0.001 c 0.3832,-0.263 0.4549,-0.79 0.1674,-1.126 h -3e-4 c -0.1438,-0.192 -0.3114,-0.36 -0.4791,-0.527 l -4e-4,-0.001 c -0.3834,-0.383 -0.8388,-0.7184 -1.342,-1.0059 l -5e-4,-3e-4 c -0.5272,-0.2875 -1.0783,-0.5272 -1.7014,-0.6949 l -5e-4,-2e-4 c -0.5991,-0.1676 -1.2701,-0.2395 -2.013,-0.2395 h -6e-4 c -1.2222,1e-4 -2.3246,0.2158 -3.3552,0.6472 l -5e-4,2e-4 c -1.0545,0.4554 -1.9412,1.0544 -2.6842,1.8454 l -3e-4,0.001 c -0.7429,0.79 -1.3181,1.701 -1.7255,2.78 h -2e-4 c -0.4314,1.079 -0.6231,2.253 -0.6231,3.523 v 0.001 c 1e-4,1.294 0.1919,2.468 0.6233,3.547 h 2e-4 c 0.4074,1.079 0.9827,1.99 1.7256,2.78 l 4e-4,0.001 c 0.743,0.791 1.6298,1.39 2.6843,1.845 h 5e-4 c 1.0306,0.432 2.1331,0.647 3.3553,0.647 h 4e-4 c 0.7429,0 1.414,-0.072 2.0131,-0.239 h 7e-4 c 0.6229,-0.168 1.1741,-0.408 1.7012,-0.695 l 5e-4,-0.001 c 0.5032,-0.287 0.9585,-0.623 1.3419,-1.006 l 3e-4,-0.001 c 0.1677,-0.167 0.3354,-0.335 0.4791,-0.527 h 3e-4 c 0.2873,-0.335 0.2153,-0.863 -0.1681,-1.126 z m 11.9212,-5.833 z m 5.9604,-2.917 c -0.1439,-0.36 -0.3357,-0.663 -0.5835,-0.927 -0.2876,-0.719 -0.6711,-1.326 -1.1663,-1.853 -0.2556,-0.264 -0.5512,-0.463 -0.8947,-0.615 -0.5114,-0.5275 -1.1026,-0.927 -1.7898,-1.2306 -0.2238,-0.0959 -0.4556,-0.1599 -0.7114,-0.1919 -0.4474,-0.1917 -0.9107,-0.3195 -1.4219,-0.3834 -0.144,-0.024 -0.28,0.0959 -0.2801,0.2476 -0.2875,-0.0476 -0.5589,0.192 -0.5589,0.4955 v 0.008 0.0158 c 0,0.128 0.0959,0.232 0.2157,0.2481 2e-4,0.2555 0.1919,0.4627 0.4315,0.4947 0.2159,0.024 0.4159,0.088 0.5999,0.176 0.4312,0.048 0.8305,0.176 1.1979,0.352 0.2718,0.128 0.5036,0.303 0.6955,0.527 0.5432,0.256 1.0065,0.607 1.3899,1.055 0.1998,0.224 0.3438,0.487 0.4477,0.783 0.3994,0.447 0.6869,0.975 0.8946,1.566 0.096,0.288 0.1519,0.599 0.152,0.927 0.1917,0.575 0.3035,1.198 0.3035,1.853 0,0.328 -0.056,0.64 -0.1518,0.928 -10e-5,0.655 -0.112,1.278 -0.3037,1.853 -0.1039,0.296 -0.2478,0.559 -0.4476,0.775 -0.2077,0.591 -0.4953,1.119 -0.8947,1.55 -0.1919,0.224 -0.4237,0.4 -0.6954,0.528 -0.3835,0.447 -0.8468,0.798 -1.39,1.054 -0.2798,0.136 -0.5916,0.2 -0.9353,0.2 -0.5592,0.272 -1.1823,0.399 -1.8692,0.399 -0.3438,0 -0.6556,-0.064 -0.9274,-0.199 -0.687,-10e-4 -1.31,-0.128 -1.8532,-0.4 -0.2798,-0.128 -0.5116,-0.304 -0.7035,-0.528 -0.5592,-0.255 -1.0225,-0.607 -1.4059,-1.054 -0.1918,-0.216 -0.3438,-0.48 -0.4397,-0.775 -0.3834,-0.432 -0.6869,-0.959 -0.8787,-1.55 -0.1039,-0.288 -0.1519,-0.6 -0.1519,-0.927 -0.2077,-0.576 -0.3035,-1.199 -0.3035,-1.854 0,-0.327 0.0479,-0.639 0.1518,-0.927 1e-4,-0.655 0.096,-1.278 0.3036,-1.853 0.096,-0.296 0.2478,-0.56 0.4396,-0.784 0.1918,-0.591 0.4954,-1.118 0.8788,-1.565 0.1919,-0.224 0.4237,-0.4 0.7034,-0.528 0.3835,-0.447 0.8468,-0.799 1.406,-1.054 0.1839,-0.088 0.3759,-0.152 0.5918,-0.176 0.3674,-0.176 0.7507,-0.304 1.182,-0.352 0.128,-0.016 0.216,-0.12 0.2161,-0.2475 0.2555,-0.032 0.4311,-0.2397 0.4311,-0.4953 v -0.008 -0.0158 c 0,-0.152 -0.1278,-0.272 -0.2797,-0.2481 -2e-4,-0.3035 -0.2558,-0.5429 -0.5593,-0.495 -0.2478,0.032 -0.4876,0.0959 -0.7114,0.1918 -0.4953,0.064 -0.9746,0.1918 -1.4219,0.3835 -0.3438,0.1519 -0.6396,0.3517 -0.8874,0.6155 -0.687,0.3031 -1.2781,0.7031 -1.7733,1.2301 -0.2558,0.264 -0.4477,0.568 -0.5917,0.927 -0.5111,0.528 -0.8946,1.135 -1.1821,1.854 -0.1439,0.359 -0.2079,0.751 -0.208,1.183 -0.2875,0.719 -0.4153,1.502 -0.4153,2.364 0,0.424 0.064,0.816 0.2078,1.175 1e-4,0.847 0.1279,1.63 0.4155,2.349 0.1439,0.36 0.3357,0.663 0.5915,0.927 0.2876,0.719 0.671,1.326 1.1823,1.853 0.2478,0.264 0.5435,0.464 0.8872,0.616 0.4954,0.527 1.0865,0.927 1.7735,1.23 0.3437,0.144 0.7114,0.216 1.1111,0.216 0.687,0.288 1.4219,0.431 2.2208,0.431 0.3997,0 0.7754,-0.072 1.1112,-0.215 0.7988,0 1.5496,-0.144 2.2206,-0.432 0.3438,-0.152 0.6396,-0.352 0.8954,-0.615 0.687,-0.304 1.2781,-0.703 1.7893,-1.231 0.2478,-0.263 0.4397,-0.567 0.5836,-0.927 0.4952,-0.527 0.8787,-1.134 1.1662,-1.853 0.1439,-0.36 0.2159,-0.752 0.216,-1.175 0.2875,-0.719 0.4312,-1.502 0.4312,-2.349 0,-0.431 -0.0719,-0.823 -0.2157,-1.183 -1e-4,-0.863 -0.1439,-1.645 -0.4315,-2.364 z m 12.081001,-3.243 z m 6.04,-1.6223 c -0.208,0 -0.392,0.1278 -0.464,0.3196 -0.415,5e-4 -0.782,0.2561 -0.925,0.6392 l -1.671,4.2835 -3.339,8.565 -0.248,0.647 -0.495,1.294 c -0.016,0.048 -0.032,0.144 -0.001,0.224 -0.031,0.097 -0.063,0.288 0.001,0.447 0.032,0.08 0.136,0.121 0.224,0.121 0.064,0.159 0.271,0.239 0.447,0.239 0.088,0 0.168,-0.048 0.2,-0.128 0.176,0 0.335,-0.096 0.399,-0.256 l 1.894,-4.73 3.787,-9.46 h 0.008 0.016 v 4.587 9.172 c 0,0.152 0.128,0.272 0.28,0.272 0,0.303 0.256,0.543 0.559,0.543 0.152,0 0.272,-0.12 0.272,-0.272 0.304,0 0.543,-0.24 0.543,-0.543 v -4.819 -9.635 c 0,-0.28 -0.224,-0.5038 -0.495,-0.504 -0.001,-0.5591 -0.448,-1.0063 -0.991,-1.0063 v 0 z m -4.617,8.8213 m -2.31,4.41 c 0.024,-0.064 0.024,-0.128 10e-4,-0.184 0.047,-0.128 0.047,-0.255 -10e-4,-0.367 l -1.534,-3.908 -3.067901,-7.8135 c -0.08,-0.1919 -0.2639,-0.32 -0.4637,-0.3201 -0.1599,-0.3833 -0.5273,-0.6387 -0.9266,-0.6387 -0.2798,0 -0.4957,0.2237 -0.4958,0.5034 -0.5591,2e-4 -0.9904,0.4476 -0.9904,1.0069 v 4.818 9.636 c 0,0.152 0.1199,0.272 0.2717,0.272 2e-4,0.303 0.2399,0.543 0.5433,0.543 0.152,0 0.272,-0.12 0.2721,-0.272 0.3034,0 0.5429,-0.24 0.5429,-0.543 v -4.586 l 2e-4,-9.173 h 0.0158 0.032 l 1.4701,3.675 2.940301,7.352 c 0.08,0.215 0.384,0.207 0.464,-10e-4 0.159,0.432 0.767,0.416 0.926,0 m 4.347,-4.41 z m 8.693,-8.8213 c -0.304,0 -0.543,0.2557 -0.544,0.5593 -0.151,3e-4 -0.271,0.128 -0.271,0.2797 v 10.0833 5.042 c 0,0.304 0.24,0.543 0.544,0.543 0,0.152 0.119,0.272 0.271,0.272 0.304,0 0.544,-0.24 0.544,-0.543 0.151,-0.001 0.271,-0.12 0.271,-0.272 v -10.084 -5.0413 c 0,-0.3037 -0.239,-0.5595 -0.543,-0.5596 0,-0.1517 -0.12,-0.2794 -0.272,-0.2794 z m 2.349,0.2077 z m 4.698,0.4153 c -0.159,-0.2557 -0.431,-0.4156 -0.735,-0.4156 -0.08,-0.1277 -0.215,-0.2074 -0.367,-0.2074 -0.496,0 -0.879,0.3995 -0.879,0.8949 -0.248,10e-5 -0.44,0.1994 -0.44,0.4474 v 9.748 4.874 c 0,0.304 0.24,0.543 0.544,0.543 0,0.152 0.12,0.272 0.271,0.272 0.304,0 0.544,-0.24 0.544,-0.543 0.152,-0.001 0.271,-0.12 0.271,-0.272 v -9.077 -4.538 h 0.033 0.015 l 5.034,7.766 2.517,3.883 c 0.304,0.448 1.023,0.24 1.023,-0.303 0.152,0.223 0.511,0.12 0.511,-0.152 0,-0.112 -0.032,-0.224 -0.096,-0.304 0,-0.056 -0.016,-0.112 -0.048,-0.152 l -5.465,-8.309 z m 3.292,-0.2075 m 6.584,-0.4155 c -0.303,0 -0.559,0.2557 -0.559,0.5593 -0.152,1e-4 -0.28,0.1279 -0.28,0.2797 v 10.0833 5.042 c 0,0.304 0.256,0.543 0.56,0.543 0,0.152 0.128,0.272 0.279,0.272 v 0 0 c 0.304,0 0.544,-0.24 0.544,-0.543 0.152,-0.001 0.271,-0.12 0.271,-0.272 v -10.084 -5.0413 c 0,-0.3037 -0.239,-0.5595 -0.543,-0.5596 0,-0.1517 -0.12,-0.2794 -0.272,-0.2794 z m 3.987,2.9163 z m 7.974,5.833 v 0 c 0,0.288 0.224,0.512 0.512,0.512 0,0.143 0.112,0.255 0.255,0.255 h 2.158 1.078 v 0 h 10e-4 1.039 0.519 c 0.287,0 0.511,-0.224 0.511,-0.511 0.144,-0.001 0.256,-0.112 0.256,-0.256 0,-0.272 -0.224,-0.496 -0.512,-0.496 0,-0.135 -0.112,-0.247 -0.255,-0.247 h -3.197 -1.598 c -0.287,0 -0.511,0.224 -0.511,0.495 -0.144,0 -0.256,0.112 -0.256,0.248 z m 1.838,0.487 z m 3.675,0.975 h -0.016 -0.007 c -0.288,0 -0.528,0.256 -0.528,0.543 -0.144,0.001 -0.263,0.128 -0.263,0.272 v 2.397 1.199 c -0.32,0.207 -0.736,0.383 -1.231,0.511 -0.16,0.104 -0.368,0.192 -0.615,0.256 -0.512,0.143 -1.071,0.207 -1.678,0.207 -0.256,0.072 -0.535,0.104 -0.839,0.104 -0.687,0 -1.311,-0.128 -1.854,-0.399 -0.343,0 -0.655,-0.064 -0.927,-0.2 -0.559,-0.256 -1.022,-0.607 -1.406,-1.055 -0.28,-0.128 -0.511,-0.303 -0.703,-0.527 -0.384,-0.432 -0.687,-0.959 -0.895,-1.55 -0.192,-0.216 -0.343,-0.48 -0.447,-0.775 -0.208,-0.576 -0.304,-1.199 -0.304,-1.854 -0.104,-0.288 -0.152,-0.599 -0.152,-0.927 0,-0.655 0.096,-1.278 0.304,-1.854 0,-0.327 0.048,-0.639 0.152,-0.926 0.207,-0.592 0.511,-1.119 0.895,-1.567 0.104,-0.295 0.255,-0.559 0.447,-0.782 0.384,-0.448 0.847,-0.799 1.406,-1.055 0.192,-0.224 0.424,-0.4 0.703,-0.527 0.544,-0.272 1.167,-0.4 1.854,-0.4 0.272,-0.136 0.583,-0.2 0.927,-0.2 0.671,0 1.263,0.112 1.774,0.336 0.335,0 0.631,0.056 0.887,0.168 0.223,0.096 0.431,0.223 0.639,0.351 0.112,0.048 0.216,0.112 0.319,0.176 0.224,0.144 0.512,0.112 0.688,-0.08 0.112,0.072 0.255,0.056 0.343,-0.04 0.24,-0.24 0.192,-0.639 -0.096,-0.815 0.12,-0.12 0.096,-0.3194 -0.048,-0.4073 -0.239,-0.1598 -0.495,-0.2877 -0.767,-0.3996 -0.12,-0.0798 -0.247,-0.1437 -0.383,-0.1996 -0.639,-0.2717 -1.391,-0.3996 -2.254,-0.3996 -0.319,-0.1358 -0.695,-0.1997 -1.126,-0.1997 -0.799,0 -1.534,0.1438 -2.222,0.4315 -0.399,0 -0.766,0.0719 -1.11,0.2157 -0.687,0.3037 -1.278,0.7032 -1.774,1.2306 -0.343,0.152 -0.639,0.352 -0.887,0.615 -0.511,0.528 -0.895,1.135 -1.182,1.854 -0.256,0.264 -0.448,0.567 -0.591,0.927 -0.288,0.719 -0.416,1.502 -0.416,2.365 -0.144,0.359 -0.208,0.751 -0.208,1.182 0,0.847 0.128,1.63 0.416,2.35 0,0.423 0.064,0.814 0.208,1.174 0.271,0.719 0.655,1.326 1.15,1.854 0.136,0.359 0.328,0.663 0.575,0.926 0.496,0.528 1.087,0.927 1.79,1.231 0.248,0.264 0.544,0.463 0.895,0.615 0.687,0.288 1.423,0.432 2.238,0.432 0.343,0.144 0.711,0.215 1.118,0.215 0.735,0 1.438,-0.08 2.11,-0.271 0.367,0 0.719,-0.04 1.054,-0.136 0.575,-0.144 1.103,-0.352 1.614,-0.639 0.288,-0.072 0.551,-0.176 0.807,-0.32 0.176,-0.112 0.288,-0.304 0.288,-0.511 0.088,-0.056 0.144,-0.152 0.144,-0.256 v -2.701 -1.35 c 0,-0.288 -0.24,-0.543 -0.544,-0.543 0,-0.144 -0.12,-0.272 -0.271,-0.272 v 0 z"
           style="opacity:0.7;mix-blend-mode:normal;fill:#c362e9;fill-opacity:1;stroke:#c362e9;stroke-width:1.85208;stroke-dasharray:none;stroke-opacity:1;filter:url(#filter6)"
           id="path5" />
        <path
           d="m 73.215192,141.42196 c -0.3116,-0.2157 -0.7671,-0.1438 -1.0068,0.1678 l -1e-4,2e-4 c -0.4794,0.5752 -1.0546,1.0306 -1.7018,1.3182 l -2e-4,1e-4 c -0.8149,0.4074 -1.7017,0.5991 -2.6365,0.5991 h -2e-4 c -1.0307,0 -1.9654,-0.1917 -2.7803,-0.5992 l -2e-4,-1e-4 c -0.8389,-0.3835 -1.534,-0.9108 -2.1092,-1.582 l -2e-4,-1e-4 c -0.5752,-0.6711 -1.0306,-1.4381 -1.3422,-2.325 v -2e-4 c -0.3116,-0.8868 -0.4554,-1.8216 -0.4554,-2.8043 v -2e-4 c 0,-0.9588 0.1438,-1.8935 0.4554,-2.7804 l 10e-5,-2e-4 c 0.3116,-0.8868 0.767,-1.6538 1.3423,-2.3249 l 1e-4,-10e-5 c 0.5753,-0.6711 1.2704,-1.1984 2.1093,-1.5819 l 2e-4,-1e-4 c 0.8149,-0.4074 1.7497,-0.5992 2.7803,-0.5992 h 2e-4 c 0.9348,1e-4 1.8216,0.1918 2.6365,0.5993 l 2e-4,1e-4 c 0.6471,0.2876 1.2224,0.743 1.7017,1.3183 l 2e-4,1e-4 c 0.2397,0.3115 0.695,0.3833 1.0066,0.1676 l 2e-4,-10e-5 c 0.3833,-0.2637 0.4552,-0.7909 0.1676,-1.1265 l -2e-4,-1e-4 c -0.1438,-0.1917 -0.3115,-0.3595 -0.4792,-0.5272 l -2e-4,-2e-4 c -0.3835,-0.3834 -0.8389,-0.719 -1.3422,-1.0066 l -2e-4,-1e-4 c -0.5273,-0.2876 -1.0785,-0.5272 -1.7017,-0.695 l -2e-4,-1e-4 c -0.5992,-0.1677 -1.2703,-0.2396 -2.0133,-0.2396 h -3e-4 c -1.2223,0 -2.3249,0.2158 -3.3555,0.6472 l -3e-4,1e-4 c -1.0545,0.4554 -1.9414,1.0547 -2.6844,1.8456 l -2e-4,2e-4 c -0.7429,0.791 -1.3182,1.7018 -1.7256,2.7804 l -1e-4,2e-4 c -0.4314,1.0786 -0.6232,2.2531 -0.6232,3.5234 v 3e-4 c 10e-5,1.2943 0.1918,2.4687 0.6233,3.5473 l 10e-5,3e-4 c 0.4075,1.0785 0.9827,1.9893 1.7257,2.7803 l 2e-4,2e-4 c 0.743,0.7909 1.6299,1.3901 2.6845,1.8455 l 2e-4,1e-4 c 1.0307,0.4314 2.1333,0.6471 3.3556,0.6471 h 2e-4 c 0.743,0 1.4141,-0.0719 2.0133,-0.2397 l 3e-4,-1e-4 c 0.6232,-0.1678 1.1744,-0.4075 1.7016,-0.6951 l 3e-4,-1e-4 c 0.5033,-0.2876 0.9586,-0.6232 1.3421,-1.0066 l 1e-4,-2e-4 c 0.1678,-0.1677 0.3355,-0.3355 0.4793,-0.5272 l 1e-4,-1e-4 c 0.2875,-0.3356 0.2155,-0.8628 -0.1679,-1.1265 z m 5.9606,-2.9164 z m 11.9211,-5.833 c -0.2877,-0.7192 -0.6712,-1.3265 -1.1666,-1.854 -0.144,-0.3594 -0.3358,-0.663 -0.5835,-0.9267 -0.5113,-0.5271 -1.1024,-0.9265 -1.7894,-1.2301 -0.2557,-0.2636 -0.5513,-0.4634 -0.8949,-0.6152 -0.4475,-0.1918 -0.911,-0.3197 -1.4224,-0.3836 -0.2237,-0.0958 -0.4553,-0.1597 -0.7109,-0.1917 -0.2877,-0.0479 -0.5595,0.1917 -0.5596,0.4954 -0.1437,-0.0238 -0.2794,0.096 -0.2794,0.2477 v 0.0161 0.008 c 0,0.2557 0.1918,0.4635 0.4315,0.4956 1e-4,0.1277 0.0959,0.2315 0.2157,0.2475 0.4316,0.0479 0.8312,0.1758 1.1988,0.3516 0.2156,0.024 0.4153,0.0879 0.599,0.1757 0.5434,0.2557 1.0069,0.6073 1.3905,1.0548 0.2715,0.1278 0.5032,0.3036 0.6949,0.5273 0.3995,0.4475 0.6872,0.9749 0.895,1.5662 0.1997,0.2237 0.3435,0.4873 0.4473,0.7828 0.1918,0.5754 0.3037,1.1987 0.3037,1.854 0.0959,0.2875 0.1518,0.5991 0.1518,0.9266 0,0.6553 -0.1119,1.2786 -0.3037,1.8539 0,0.3275 -0.0559,0.6391 -0.1518,0.9267 -0.2077,0.5913 -0.4954,1.1187 -0.8949,1.5502 -0.1039,0.2956 -0.2477,0.5592 -0.4474,0.7749 -0.3836,0.4475 -0.8471,0.7991 -1.3904,1.0548 -0.1918,0.2237 -0.4234,0.3994 -0.695,0.5272 -0.5594,0.2717 -1.1827,0.3996 -1.8699,0.3996 -0.2796,0.1358 -0.5912,0.1997 -0.9346,0.1997 -0.6873,0 -1.3106,-0.1279 -1.854,-0.3995 -0.3435,-1e-4 -0.655,-0.064 -0.9266,-0.1998 -0.5594,-0.2557 -1.0229,-0.6073 -1.4065,-1.0548 -0.2795,-0.1278 -0.5112,-0.3036 -0.7029,-0.5272 -0.3836,-0.4315 -0.6872,-0.9589 -0.879,-1.5503 -0.1917,-0.2157 -0.3435,-0.4793 -0.4394,-0.7748 -0.2077,-0.5754 -0.3036,-1.1987 -0.3037,-1.854 -0.1038,-0.2875 -0.1517,-0.5991 -0.1517,-0.9266 0,-0.6553 0.0959,-1.2786 0.3036,-1.8539 1e-4,-0.3275 0.048,-0.6391 0.1518,-0.9267 0.1918,-0.5913 0.4955,-1.1187 0.879,-1.5662 0.0959,-0.2956 0.2477,-0.5592 0.4394,-0.7828 0.3836,-0.4475 0.8471,-0.7992 1.4064,-1.0549 0.1917,-0.2236 0.4234,-0.3994 0.703,-0.5272 0.3676,-0.1758 0.7512,-0.3037 1.1828,-0.3517 0.1837,-0.0878 0.3754,-0.1517 0.591,-0.1756 0.2557,-0.032 0.4316,-0.2397 0.4317,-0.4954 0.1277,-0.0161 0.2155,-0.1199 0.2155,-0.2477 v -0.0161 -0.008 c 0,-0.3037 -0.2557,-0.5435 -0.5593,-0.4956 -1e-4,-0.1517 -0.1279,-0.2714 -0.2797,-0.2475 -0.4954,0.064 -0.9749,0.1918 -1.4224,0.3836 -0.2476,0.0319 -0.4873,0.0958 -0.7109,0.1917 -0.6873,0.3037 -1.2786,0.7032 -1.7741,1.2306 -0.3434,0.1518 -0.639,0.3515 -0.8866,0.6151 -0.5115,0.5274 -0.895,1.1347 -1.1827,1.8539 -0.2556,0.2636 -0.4473,0.5672 -0.5911,0.9267 -0.2877,0.7192 -0.4156,1.5023 -0.4156,2.3653 -0.1438,0.3595 -0.2077,0.7509 -0.2077,1.1823 0,0.847 0.1279,1.6302 0.4155,2.3494 1e-4,0.4233 0.064,0.8147 0.2078,1.1742 0.2877,0.7192 0.6712,1.3265 1.1826,1.854 0.1438,0.3594 0.3356,0.663 0.5912,0.9266 0.4954,0.5274 1.0868,0.9269 1.774,1.2306 0.2476,0.2636 0.5432,0.4633 0.8867,0.6151 0.6872,0.2877 1.4224,0.4315 2.2215,0.4315 0.3435,0.1438 0.7109,0.2157 1.1104,0.2157 0.7991,0 1.5502,-0.1438 2.2215,-0.4315 0.3994,0 0.7748,-0.0719 1.1103,-0.2157 0.6873,-0.3037 1.2786,-0.7032 1.7901,-1.2306 0.3434,-0.1518 0.639,-0.3515 0.8946,-0.6151 0.4954,-0.5274 0.879,-1.1348 1.1667,-1.8539 0.2476,-0.2637 0.4393,-0.5672 0.5831,-0.9267 0.2877,-0.7192 0.4316,-1.5023 0.4316,-2.3493 0.1438,-0.3595 0.2156,-0.751 0.2156,-1.1743 0,-0.8631 -0.1438,-1.6462 -0.4314,-2.3654 -1e-4,-0.4314 -0.072,-0.8228 -0.2158,-1.1822 z m 6.0407,-1.6217 z m 12.080208,-3.244 c -0.415,0 -0.783,0.2557 -0.927,0.6392 -0.207,3e-4 -0.391,0.128 -0.462,0.3196 l -3.34,8.5656 -1.67,4.2825 -0.496,1.2945 -0.247,0.6471 c -0.032,0.096 -0.064,0.2878 0,0.4477 -0.016,0.048 -0.032,0.1437 0,0.2235 0.064,0.1598 0.271,0.2398 0.447,0.2399 0.032,0.0797 0.136,0.1196 0.224,0.1196 0.176,0 0.336,-0.0959 0.4,-0.2557 0.087,-1e-4 0.167,-0.048 0.199,-0.1278 l 3.787,-9.4605 1.894,-4.7299 h 0.016 0.008 v 9.1728 4.5861 c 0,0.3037 0.256,0.5435 0.559,0.5436 0,0.1517 0.128,0.2714 0.28,0.2714 0.304,0 0.543,-0.2397 0.544,-0.5433 0.151,-10e-5 0.271,-0.1199 0.271,-0.2717 v -9.6363 -4.8178 c 0,-0.5594 -0.447,-1.0069 -0.991,-1.0069 0,-0.2796 -0.224,-0.5032 -0.495,-0.5032 v 0 z m -2.308,4.4105 m -4.619,8.8211 c 0.048,-0.1279 0.048,-0.2558 0,-0.3677 0.024,-0.0639 0.024,-0.1277 0,-0.1836 l -3.067908,-7.8145 -1.534,-3.907 c -0.1599,-0.3836 -0.5275,-0.6394 -0.927,-0.6395 -0.08,-0.1916 -0.2637,-0.3193 -0.4633,-0.3193 -0.5594,0 -0.9909,0.4474 -0.991,1.0067 -0.2795,2e-4 -0.4952,0.2238 -0.4952,0.5034 v 9.6363 4.8178 c 0,0.3037 0.2397,0.5435 0.5434,0.5436 1e-4,0.1517 0.1199,0.2714 0.2716,0.2714 0.3037,0 0.5435,-0.2397 0.5436,-0.5433 0.1517,-10e-5 0.2714,-0.1201 0.2714,-0.2721 v -9.1722 l 4e-4,-4.5863 h 0.0315 l 0.0162,3e-4 2.9402,7.3506 1.470108,3.676 c 0.16,0.4309 0.767,0.4147 0.927,-6e-4 0.08,0.2157 0.383,0.2077 0.463,0 m 8.694,-8.8211 z m 4.346,-4.4105 c -0.152,0 -0.272,0.1278 -0.272,0.2796 -0.304,5e-4 -0.543,0.256 -0.543,0.5594 v 5.0422 10.083 c 0,0.152 0.12,0.272 0.272,0.2721 0,0.3034 0.24,0.5429 0.543,0.5429 0.152,0 0.272,-0.1198 0.272,-0.2717 0.304,-2e-4 0.543,-0.2398 0.543,-0.5433 v -5.0422 -10.083 c 0,-0.152 -0.12,-0.28 -0.271,-0.2801 -10e-4,-0.3035 -0.24,-0.5589 -0.544,-0.5589 z m 4.698,0.4155 z m 2.349,0.2073 c -0.08,-0.1279 -0.216,-0.2079 -0.368,-0.2081 -0.159,-0.2552 -0.431,-0.4147 -0.734,-0.4147 -0.248,0 -0.44,0.1997 -0.44,0.4474 -0.495,2e-4 -0.879,0.3997 -0.879,0.8949 v 4.8744 9.7475 c 0,0.152 0.12,0.272 0.272,0.2721 0,0.3034 0.24,0.5429 0.543,0.5429 0.152,0 0.272,-0.1198 0.273,-0.2717 0.303,-2e-4 0.542,-0.2398 0.542,-0.5433 v -4.5388 -9.0763 h 0.017 0.031 l 2.517,3.8835 5.034,7.7661 c 0.152,0.2238 0.512,0.12 0.512,-0.1515 0.303,0.447 1.022,0.2392 1.022,-0.304 0,-0.0561 -0.016,-0.1123 -0.048,-0.1525 0,-0.1116 -0.032,-0.2232 -0.096,-0.3029 l -2.733,-4.1552 z m 6.584,-0.4151 m 3.292,-0.2077 c -0.152,0 -0.28,0.1278 -0.28,0.2796 -0.303,3e-4 -0.559,0.2559 -0.559,0.5594 v 5.0422 10.083 c 0,0.152 0.128,0.272 0.28,0.2721 0,0.3034 0.256,0.5429 0.559,0.5429 v 0 h 10e-4 c 0.152,0 0.272,-0.1198 0.272,-0.2717 0.303,-4e-4 0.542,-0.24 0.542,-0.5433 v -5.0422 -10.083 c 0,-0.152 -0.12,-0.28 -0.271,-0.2801 -0.001,-0.3035 -0.24,-0.5589 -0.544,-0.5589 z m 7.974,5.8328 z m 3.987,2.9168 v 4e-4 c 0,0.144 0.112,0.256 0.256,0.2561 0.001,0.287 0.224,0.5101 0.511,0.5101 h 1.08 2.156 v 0 h 10e-4 0.52 1.038 c 0.143,0 0.255,-0.1119 0.256,-0.2557 0.287,-2e-4 0.511,-0.2238 0.511,-0.5113 0,-0.136 -0.112,-0.248 -0.256,-0.2481 0,-0.2715 -0.224,-0.495 -0.511,-0.495 h -1.599 -3.196 c -0.144,0 -0.256,0.1118 -0.256,0.2477 -0.287,2e-4 -0.511,0.2238 -0.511,0.4954 z m 3.676,0.9743 z m 1.837,0.4874 h -0.008 -0.015 c -0.144,0 -0.264,0.1279 -0.265,0.2717 -0.287,3e-4 -0.526,0.2558 -0.526,0.5433 v 1.199 2.3966 c -0.16,0.104 -0.368,0.1919 -0.616,0.256 -0.32,0.2076 -0.735,0.3832 -1.23,0.511 -0.256,0.072 -0.536,0.104 -0.839,0.104 -0.512,0.1438 -1.071,0.2076 -1.678,0.2076 -0.344,0 -0.656,-0.0639 -0.927,-0.1997 -0.687,-1e-4 -1.31,-0.1279 -1.854,-0.3995 -0.279,-0.1279 -0.511,-0.3038 -0.703,-0.5276 -0.559,-0.2556 -1.023,-0.6071 -1.406,-1.0545 -0.192,-0.2158 -0.344,-0.4796 -0.448,-0.7753 -0.383,-0.4314 -0.687,-0.9586 -0.894,-1.5498 -0.104,-0.2878 -0.152,-0.5995 -0.152,-0.9272 -0.208,-0.5752 -0.304,-1.1983 -0.304,-1.8533 0,-0.3278 0.048,-0.6396 0.152,-0.9274 0,-0.655 0.096,-1.278 0.304,-1.8532 0.104,-0.2958 0.255,-0.5596 0.447,-0.7834 0.208,-0.5911 0.512,-1.1183 0.895,-1.5657 0.192,-0.2238 0.424,-0.3997 0.703,-0.5276 0.384,-0.4473 0.847,-0.7988 1.406,-1.0544 0.272,-0.1359 0.584,-0.1999 0.928,-0.2 0.543,-0.2715 1.166,-0.3993 1.853,-0.3993 0.336,0 0.632,0.056 0.887,0.1678 0.671,1e-4 1.262,0.1119 1.774,0.3356 0.112,0.048 0.216,0.112 0.32,0.1759 0.223,0.0959 0.431,0.2237 0.638,0.3515 0.112,0.0719 0.256,0.056 0.344,-0.0398 0.224,0.1436 0.511,0.1116 0.687,-0.0801 0.12,-0.12 0.096,-0.3198 -0.047,-0.4078 0.239,-0.2398 0.191,-0.639 -0.097,-0.8147 -0.12,-0.08 -0.248,-0.144 -0.384,-0.2 -0.239,-0.1597 -0.495,-0.2874 -0.766,-0.3992 -0.32,-0.1359 -0.696,-0.1999 -1.127,-0.2 -0.639,-0.2715 -1.39,-0.3993 -2.253,-0.3993 -0.4,0 -0.767,0.0719 -1.111,0.2157 -0.799,1e-4 -1.534,0.1439 -2.221,0.4315 -0.344,0.1519 -0.639,0.3517 -0.887,0.6155 -0.687,0.3036 -1.278,0.703 -1.774,1.2302 -0.255,0.2638 -0.447,0.5676 -0.591,0.9273 -0.511,0.5272 -0.895,1.1343 -1.182,1.8533 -0.144,0.3597 -0.208,0.7514 -0.208,1.183 -0.288,0.719 -0.416,1.5019 -0.416,2.3646 0,0.4237 0.064,0.8154 0.208,1.1751 0,0.8468 0.128,1.6296 0.416,2.3485 0.136,0.3597 0.327,0.6635 0.575,0.9274 0.272,0.7189 0.655,1.3259 1.15,1.8532 0.248,0.2638 0.544,0.4636 0.896,0.6156 0.495,0.5271 1.086,0.9265 1.789,1.2301 0.344,0.1439 0.712,0.2158 1.119,0.2159 0.687,0.2875 1.422,0.4313 2.237,0.4313 0.368,0 0.719,-0.04 1.055,-0.1359 0.735,0 1.438,-0.0799 2.109,-0.2716 0.288,-0.072 0.552,-0.1759 0.807,-0.3197 0.576,-0.1439 1.103,-0.3516 1.614,-0.6391 0.088,-0.0561 0.144,-0.1521 0.144,-0.256 0.176,-0.112 0.288,-0.3035 0.288,-0.5111 v -1.3508 -2.7002 c 0,-0.1439 -0.12,-0.2719 -0.272,-0.2721 0,-0.2874 -0.24,-0.5429 -0.543,-0.5429 v 0 z"
           style="opacity:0.7;fill:#deadf1;fill-opacity:1;stroke:#deadf1;stroke-width:1.05833;stroke-dasharray:none;stroke-opacity:1;filter:url(#filter7)"
           id="path4" />
        <path
           style="font-size:23.9703px;font-family:KosanNonCommercial;-inkscape-font-specification:KosanNonCommercial;text-align:center;text-anchor:middle;opacity:0.23;fill:#1a1a1a;fill-opacity:1;stroke:#6d17e1;stroke-width:0;stroke-opacity:1"
           d="m 74.170045,143.27053 c -0.302254,-0.20926 -0.744011,-0.13951 -0.976513,0.16276 -0.465007,0.55799 -1.023016,0.99975 -1.650776,1.27876 -0.790513,0.39525 -1.650776,0.58125 -2.557539,0.58125 -0.999764,0 -1.906528,-0.186 -2.697041,-0.58125 -0.81376,-0.37201 -1.488023,-0.88352 -2.04603,-1.53453 -0.558008,-0.651 -0.999765,-1.39501 -1.302019,-2.25529 -0.302255,-0.86025 -0.441758,-1.76703 -0.441758,-2.72028 0,-0.93 0.139503,-1.83678 0.441758,-2.69704 0.302254,-0.86027 0.744011,-1.60428 1.302019,-2.25528 0.558007,-0.65101 1.23227,-1.16252 2.04603,-1.53453 0.790513,-0.39525 1.697277,-0.58125 2.697041,-0.58125 0.906763,0 1.767026,0.186 2.557539,0.58125 0.62776,0.27901 1.185769,0.72076 1.650776,1.27876 0.232502,0.30227 0.674259,0.37202 0.976513,0.16276 0.372006,-0.25575 0.441756,-0.76726 0.162753,-1.09276 -0.139503,-0.186 -0.302256,-0.34876 -0.465007,-0.51152 -0.372006,-0.37199 -0.813762,-0.69751 -1.30202,-0.97651 -0.511508,-0.279 -1.046266,-0.51149 -1.650775,-0.67425 -0.581258,-0.16275 -1.232268,-0.2325 -1.953029,-0.2325 -1.185768,0 -2.255282,0.20926 -3.255048,0.62775 -1.023016,0.44175 -1.883277,1.02302 -2.604039,1.79029 -0.720759,0.76725 -1.278767,1.65076 -1.674025,2.69703 -0.418506,1.04627 -0.604508,2.18553 -0.604508,3.4178 0,1.25553 0.186002,2.39478 0.604508,3.44105 0.395258,1.04627 0.953266,1.9298 1.674025,2.69704 0.720762,0.76726 1.581023,1.34853 2.604039,1.79028 0.999766,0.4185 2.06928,0.62775 3.255048,0.62775 0.720761,0 1.371771,-0.0698 1.953029,-0.23248 0.604509,-0.16276 1.139267,-0.39527 1.650775,-0.67427 0.488258,-0.27901 0.930014,-0.60452 1.30202,-0.97651 0.162751,-0.16276 0.325504,-0.32552 0.465007,-0.51152 0.279003,-0.32551 0.209253,-0.83701 -0.162753,-1.09276 z m 17.344758,-8.48638 c -0.418511,-1.04627 -0.976512,-1.92978 -1.697273,-2.69704 -0.744015,-0.76726 -1.604276,-1.34853 -2.604041,-1.79028 -0.651011,-0.279 -1.325271,-0.465 -2.06928,-0.558 -0.418508,-0.0698 -0.813765,0.279 -0.813765,0.72076 v 0.0233 c 0,0.372 0.279005,0.67427 0.62776,0.72076 0.627759,0.0698 1.20902,0.25576 1.743777,0.51152 0.790511,0.37199 1.46477,0.88351 2.02278,1.53451 0.581259,0.65101 0.999764,1.41826 1.30202,2.27854 0.278999,0.83701 0.441759,1.74376 0.441759,2.69704 0,0.95325 -0.16276,1.86003 -0.441759,2.69703 -0.302256,0.86027 -0.720761,1.62753 -1.30202,2.25528 -0.55801,0.65102 -1.232269,1.16253 -2.02278,1.53452 -0.813763,0.39527 -1.720526,0.58127 -2.720291,0.58127 -0.999766,0 -1.906527,-0.186 -2.69704,-0.58127 -0.813763,-0.37199 -1.488023,-0.8835 -2.046031,-1.53452 -0.55801,-0.62775 -0.999766,-1.39501 -1.278769,-2.25528 -0.302256,-0.837 -0.441757,-1.74378 -0.441757,-2.69703 0,-0.95328 0.139501,-1.86003 0.441757,-2.69704 0.279003,-0.86028 0.720759,-1.62753 1.278769,-2.27854 0.558008,-0.651 1.232268,-1.16252 2.046031,-1.53451 0.534757,-0.25576 1.092765,-0.44177 1.720525,-0.51152 0.372006,-0.0464 0.627759,-0.34876 0.627759,-0.72076 v -0.0233 c 0,-0.44176 -0.372006,-0.79051 -0.813762,-0.72076 -0.720761,0.093 -1.418272,0.279 -2.069282,0.558 -0.999764,0.44175 -1.860026,1.02302 -2.580788,1.79028 -0.744009,0.76726 -1.302018,1.65077 -1.720526,2.69704 -0.418506,1.04627 -0.604509,2.18553 -0.604509,3.44105 0,1.23227 0.186003,2.37153 0.604509,3.4178 0.418508,1.04627 0.976517,1.92978 1.720526,2.69704 0.720762,0.76726 1.581024,1.34853 2.580788,1.79028 0.999766,0.4185 2.069282,0.62775 3.2318,0.62775 1.162519,0 2.255283,-0.20925 3.231799,-0.62775 0.999765,-0.44175 1.860026,-1.02302 2.604041,-1.79028 0.720761,-0.76726 1.278762,-1.65077 1.697273,-2.69704 0.4185,-1.04627 0.627762,-2.18553 0.627762,-3.4178 0,-1.25552 -0.209262,-2.39478 -0.627762,-3.44105 z m 17.577267,-4.71983 c -0.6045,0 -1.13927,0.37202 -1.34853,0.93002 l -4.8593,12.4622 -0.72077,1.88326 c -0.0464,0.13951 -0.093,0.41852 0,0.65101 0.093,0.23251 0.39526,0.34875 0.65101,0.34875 0.25575,0 0.48825,-0.13949 0.58125,-0.372 l 5.51033,-13.7642 h 0.0233 v 13.3457 c 0,0.44175 0.37201,0.7905 0.81377,0.7905 0.44175,0 0.7905,-0.34875 0.7905,-0.7905 v -14.01997 c 0,-0.81376 -0.65099,-1.46475 -1.44151,-1.46475 z m -6.71934,12.8342 c 0.0698,-0.186 0.0698,-0.372 0,-0.53476 l -4.464075,-11.36942 c -0.2325,-0.558 -0.76726,-0.93002 -1.348522,-0.93002 -0.813762,0 -1.441513,0.65101 -1.441513,1.46477 v 14.01997 c 0,0.44175 0.34875,0.7905 0.790511,0.7905 0.441752,0 0.790502,-0.34875 0.790502,-0.7905 v -13.3457 h 0.04645 l 4.278067,10.69516 c 0.2325,0.62776 1.11603,0.60451 1.34853,0 z m 12.6482,-12.8342 c -0.44176,0 -0.79053,0.37202 -0.79053,0.81376 v 14.67098 c 0,0.44175 0.34877,0.7905 0.79053,0.7905 0.44175,0 0.7905,-0.34875 0.7905,-0.7905 v -14.67098 c 0,-0.44174 -0.34875,-0.81374 -0.7905,-0.81376 z m 6.83558,0.60451 c -0.23251,-0.372 -0.62776,-0.60451 -1.06952,-0.60451 -0.72076,0 -1.27876,0.58126 -1.27876,1.30203 v 14.18271 c 0,0.44175 0.34875,0.7905 0.79051,0.7905 0.44175,0 0.79051,-0.34875 0.79051,-0.7905 v -13.2062 h 0.0464 l 7.32386,11.29967 c 0.44175,0.65101 1.48802,0.34875 1.48802,-0.44176 0,-0.16275 -0.0464,-0.3255 -0.1395,-0.44175 z m 9.57914,-0.60451 c -0.44175,0 -0.81376,0.37202 -0.81376,0.81376 v 14.67098 c 0,0.44175 0.37201,0.7905 0.81376,0.7905 v 0 c 0.44176,0 0.79052,-0.34875 0.79052,-0.7905 v -14.67098 c 0,-0.44174 -0.34876,-0.81374 -0.79052,-0.81376 z m 11.60191,8.48638 v 0 c 0,0.4185 0.32551,0.74401 0.744,0.74401 h 3.13881 v 0 h 1.51127 c 0.41849,0 0.74401,-0.32551 0.74401,-0.74401 0,-0.39525 -0.32552,-0.72076 -0.74401,-0.72076 h -4.65008 c -0.41849,0 -0.744,0.32551 -0.744,0.72076 z m 5.34758,1.41828 h -0.0233 c -0.41851,0 -0.76727,0.37201 -0.76727,0.7905 v 3.48756 c -0.46498,0.30225 -1.0695,0.55801 -1.79026,0.74401 -0.74401,0.20925 -1.55777,0.30225 -2.44129,0.30225 -0.99976,0 -1.90654,-0.186 -2.69704,-0.58125 -0.81376,-0.37201 -1.48802,-0.88352 -2.04603,-1.53453 -0.55801,-0.62775 -0.99978,-1.39501 -1.30203,-2.25529 -0.30225,-0.837 -0.44174,-1.74378 -0.44174,-2.69703 0,-0.95325 0.13949,-1.86003 0.44174,-2.69704 0.30225,-0.86027 0.74402,-1.62753 1.30203,-2.27853 0.55801,-0.65101 1.23227,-1.16252 2.04603,-1.53453 0.7905,-0.39525 1.69728,-0.58125 2.69704,-0.58125 0.97652,0 1.83678,0.16275 2.58078,0.48824 0.3255,0.13951 0.62777,0.32552 0.93003,0.51152 0.32551,0.20925 0.74399,0.16275 0.99975,-0.11625 0.34875,-0.34877 0.279,-0.93001 -0.13951,-1.18578 -0.34873,-0.2325 -0.72074,-0.41849 -1.116,-0.58125 -0.93001,-0.39525 -2.02278,-0.58125 -3.2783,-0.58125 -1.16252,0 -2.23203,0.20926 -3.23181,0.62775 -0.99975,0.44175 -1.86002,1.02302 -2.58079,1.79028 -0.74399,0.76726 -1.30201,1.65077 -1.72052,2.69704 -0.4185,1.04627 -0.6045,2.18553 -0.6045,3.44105 0,1.23227 0.186,2.37153 0.6045,3.4178 0.39526,1.04627 0.95328,1.92978 1.67402,2.69704 0.72077,0.76726 1.58103,1.34853 2.60404,1.79028 0.99978,0.4185 2.06929,0.62775 3.25506,0.62775 1.06951,0 2.09253,-0.11625 3.06904,-0.39526 0.83703,-0.20924 1.60427,-0.51149 2.3483,-0.93 0.25574,-0.16276 0.41849,-0.44176 0.41849,-0.74401 v -3.92932 c 0,-0.41849 -0.34874,-0.7905 -0.79051,-0.7905 z"
           id="text1-2-2"
           aria-label="COMING" />
        <path
           style="font-size:23.9703px;font-family:KosanNonCommercial;-inkscape-font-specification:KosanNonCommercial;text-align:center;text-anchor:middle;opacity:0.7;fill:#f9f9f9;fill-opacity:1;stroke:#6d17e1;stroke-width:0;stroke-opacity:1"
           d="m 73.215387,141.42199 c -0.311614,-0.21573 -0.767049,-0.14382 -1.006752,0.1678 -0.479406,0.57528 -1.054694,1.03072 -1.701892,1.31836 -0.81499,0.4075 -1.701891,0.59926 -2.636733,0.59926 -1.030723,0 -1.965565,-0.19176 -2.780555,-0.59926 -0.83896,-0.38352 -1.534099,-0.91087 -2.109386,-1.58204 -0.575287,-0.67116 -1.030723,-1.43821 -1.342337,-2.32512 -0.311614,-0.8869 -0.455436,-1.82174 -0.455436,-2.80452 0,-0.95881 0.143822,-1.89365 0.455436,-2.78056 0.311614,-0.8869 0.76705,-1.65395 1.342337,-2.32511 0.575287,-0.67117 1.270426,-1.19852 2.109386,-1.58204 0.81499,-0.4075 1.749832,-0.59926 2.780555,-0.59926 0.934842,0 1.821743,0.19176 2.636733,0.59926 0.647198,0.28764 1.222486,0.74307 1.701892,1.31836 0.239703,0.31162 0.695138,0.38353 1.006752,0.16779 0.383525,-0.26367 0.455436,-0.79102 0.167792,-1.1266 -0.143822,-0.19176 -0.311614,-0.35955 -0.479406,-0.52735 -0.383525,-0.38352 -0.83896,-0.71911 -1.342337,-1.00675 -0.527346,-0.28764 -1.078663,-0.52734 -1.701891,-0.69514 -0.599257,-0.16779 -1.270426,-0.2397 -2.013505,-0.2397 -1.222486,0 -2.325119,0.21574 -3.355842,0.6472 -1.054694,0.45543 -1.941595,1.05469 -2.684674,1.84572 -0.743079,0.79101 -1.318366,1.70188 -1.725862,2.78055 -0.431465,1.07866 -0.623227,2.2532 -0.623227,3.52363 0,1.29441 0.191762,2.46894 0.623227,3.5476 0.407496,1.07867 0.982783,1.98955 1.725862,2.78056 0.743079,0.79102 1.62998,1.39028 2.684674,1.84571 1.030723,0.43147 2.133356,0.6472 3.355842,0.6472 0.743079,0 1.414248,-0.0719 2.013505,-0.23969 0.623228,-0.1678 1.174545,-0.40751 1.701891,-0.69515 0.503377,-0.28765 0.958812,-0.62323 1.342337,-1.00675 0.167792,-0.1678 0.335584,-0.33559 0.479406,-0.52735 0.287644,-0.33559 0.215733,-0.86293 -0.167792,-1.12661 z m 17.881843,-8.74915 c -0.43147,-1.07867 -1.00675,-1.98954 -1.74983,-2.78056 -0.767053,-0.79102 -1.653954,-1.39028 -2.684677,-1.84571 -0.671168,-0.28765 -1.366307,-0.47941 -2.133356,-0.57529 -0.431466,-0.0719 -0.838961,0.28764 -0.838961,0.74308 v 0.024 c 0,0.38352 0.287644,0.69514 0.647198,0.74308 0.647198,0.0719 1.246456,0.26367 1.797773,0.52735 0.81499,0.38352 1.510129,0.91087 2.085416,1.58204 0.599257,0.67116 1.030723,1.46218 1.342337,2.34908 0.28764,0.86294 0.45544,1.79778 0.45544,2.78056 0,0.98278 -0.1678,1.91762 -0.45544,2.78055 -0.311614,0.88691 -0.74308,1.67793 -1.342337,2.32512 -0.575287,0.67117 -1.270426,1.19852 -2.085416,1.58204 -0.838961,0.4075 -1.773802,0.59926 -2.804525,0.59926 -1.030723,0 -1.965565,-0.19176 -2.780555,-0.59926 -0.838961,-0.38352 -1.5341,-0.91087 -2.109387,-1.58204 -0.575287,-0.64719 -1.030723,-1.43821 -1.318366,-2.32512 -0.311614,-0.86293 -0.455436,-1.79777 -0.455436,-2.78055 0,-0.98278 0.143822,-1.91762 0.455436,-2.78056 0.287643,-0.8869 0.743079,-1.67792 1.318366,-2.34908 0.575287,-0.67117 1.270426,-1.19852 2.109387,-1.58204 0.551317,-0.26368 1.126604,-0.45544 1.773802,-0.52735 0.383525,-0.0479 0.647198,-0.35956 0.647198,-0.74308 v -0.024 c 0,-0.45544 -0.383525,-0.81499 -0.83896,-0.74308 -0.74308,0.0959 -1.462189,0.28764 -2.133357,0.57529 -1.030723,0.45543 -1.917624,1.05469 -2.660704,1.84571 -0.767049,0.79102 -1.342336,1.70189 -1.773802,2.78056 -0.431465,1.07866 -0.623228,2.2532 -0.623228,3.5476 0,1.27043 0.191763,2.44497 0.623228,3.52363 0.431466,1.07867 1.006753,1.98954 1.773802,2.78056 0.74308,0.79102 1.629981,1.39028 2.660704,1.84571 1.030723,0.43147 2.133357,0.6472 3.331872,0.6472 1.198515,0 2.325119,-0.21573 3.331871,-0.6472 1.030723,-0.45543 1.917624,-1.05469 2.684677,-1.84571 0.74308,-0.79102 1.31836,-1.70189 1.74983,-2.78056 0.43146,-1.07866 0.6472,-2.2532 0.6472,-3.52363 0,-1.2944 -0.21574,-2.46894 -0.6472,-3.5476 z m 18.12156,-4.86598 c -0.62323,0 -1.17455,0.38353 -1.39028,0.95882 l -5.00979,12.84808 -0.74308,1.94159 c -0.0479,0.14382 -0.0959,0.43147 0,0.67117 0.0959,0.2397 0.40749,0.35955 0.67116,0.35955 0.26368,0 0.50338,-0.14382 0.59926,-0.38352 l 5.68096,-14.19042 h 0.024 v 13.75895 c 0,0.45544 0.38353,0.81499 0.83896,0.81499 0.45544,0 0.81499,-0.35955 0.81499,-0.81499 v -14.45409 c 0,-0.83896 -0.67116,-1.51012 -1.48615,-1.51012 z m -6.92742,13.23161 c 0.0719,-0.19176 0.0719,-0.38352 0,-0.55132 l -4.6023,-11.72147 c -0.2397,-0.57529 -0.79102,-0.95882 -1.39028,-0.95882 -0.83896,0 -1.48615,0.67117 -1.48615,1.51013 v 14.45409 c 0,0.45544 0.35955,0.81499 0.81499,0.81499 0.45543,0 0.81498,-0.35955 0.81498,-0.81499 v -13.75895 h 0.0479 l 4.41054,11.02634 c 0.2397,0.6472 1.15058,0.62323 1.39028,0 z m 13.03985,-13.23161 c -0.45543,0 -0.81499,0.38353 -0.81499,0.83896 v 15.12526 c 0,0.45544 0.35956,0.81499 0.81499,0.81499 0.45544,0 0.81499,-0.35955 0.81499,-0.81499 v -15.12526 c 0,-0.45543 -0.35955,-0.83895 -0.81499,-0.83896 z m 7.04726,0.62323 c -0.23971,-0.38352 -0.6472,-0.62323 -1.10264,-0.62323 -0.74308,0 -1.31836,0.59926 -1.31836,1.34234 v 14.62188 c 0,0.45544 0.35955,0.81499 0.81499,0.81499 0.45543,0 0.81499,-0.35955 0.81499,-0.81499 v -13.61513 h 0.0479 l 7.55064,11.64957 c 0.45544,0.67117 1.5341,0.35955 1.5341,-0.45544 0,-0.16779 -0.0479,-0.33558 -0.14382,-0.45543 z m 9.87576,-0.62323 c -0.45544,0 -0.83896,0.38353 -0.83896,0.83896 v 15.12526 c 0,0.45544 0.38352,0.81499 0.83896,0.81499 v 0 c 0.45544,0 0.81499,-0.35955 0.81499,-0.81499 v -15.12526 c 0,-0.45543 -0.35955,-0.83895 -0.81499,-0.83896 z m 11.96116,8.74916 v 0 c 0,0.43147 0.33559,0.76705 0.76705,0.76705 h 3.23599 v 0 h 1.55807 c 0.43147,0 0.76705,-0.33558 0.76705,-0.76705 0,-0.40749 -0.33558,-0.74308 -0.76705,-0.74308 h -4.79406 c -0.43146,0 -0.76705,0.33559 -0.76705,0.74308 z m 5.51317,1.46219 h -0.024 c -0.43146,0 -0.79102,0.38353 -0.79102,0.81499 v 3.59555 c -0.4794,0.31161 -1.10263,0.57528 -1.84571,0.76705 -0.76705,0.21573 -1.60601,0.31161 -2.51688,0.31161 -1.03073,0 -1.96557,-0.19176 -2.78056,-0.59926 -0.83896,-0.38352 -1.5341,-0.91087 -2.10938,-1.58204 -0.57529,-0.64719 -1.03073,-1.43821 -1.34234,-2.32512 -0.31162,-0.86293 -0.45544,-1.79777 -0.45544,-2.78055 0,-0.98278 0.14382,-1.91762 0.45544,-2.78056 0.31161,-0.8869 0.76705,-1.67792 1.34234,-2.34908 0.57528,-0.67117 1.27042,-1.19852 2.10938,-1.58204 0.81499,-0.4075 1.74983,-0.59926 2.78056,-0.59926 1.00675,0 1.89365,0.16779 2.6607,0.50337 0.33558,0.14383 0.6472,0.33559 0.95881,0.52735 0.33559,0.21573 0.76705,0.16779 1.03073,-0.11985 0.35955,-0.35956 0.28764,-0.95881 -0.14383,-1.22249 -0.35955,-0.2397 -0.74308,-0.43146 -1.15057,-0.59925 -0.95881,-0.4075 -2.08542,-0.59926 -3.37981,-0.59926 -1.19852,0 -2.30115,0.21574 -3.33188,0.6472 -1.03072,0.45543 -1.91762,1.05469 -2.6607,1.84571 -0.76705,0.79102 -1.34234,1.70189 -1.7738,2.78056 -0.43147,1.07866 -0.62323,2.2532 -0.62323,3.5476 0,1.27043 0.19176,2.44497 0.62323,3.52363 0.40749,1.07867 0.98278,1.98954 1.72586,2.78056 0.74308,0.79102 1.62998,1.39028 2.68467,1.84571 1.03073,0.43147 2.13336,0.6472 3.35585,0.6472 1.10263,0 2.15732,-0.11985 3.16408,-0.4075 0.86293,-0.21573 1.65395,-0.52734 2.421,-0.95881 0.26367,-0.16779 0.43146,-0.45543 0.43146,-0.76705 v -4.05098 c 0,-0.43146 -0.35955,-0.81499 -0.81499,-0.81499 z"
           id="text1-2"
           aria-label="COMING" />
      </g>
      <g
         id="g12">
        <path
           style="font-size:23.9703px;font-family:KosanNonCommercial;-inkscape-font-specification:KosanNonCommercial;text-align:center;text-anchor:middle;opacity:0.7;fill:#a817e1;fill-opacity:1;stroke:#a817e1;stroke-width:2.64583;stroke-dasharray:none;stroke-opacity:1;filter:url(#filter8)"
           d="m 74.239453,160.82439 c 0.407495,0.35955 0.862931,0.64719 1.390277,0.8869 0.239703,0.0959 0.599258,0.21573 0.910872,0.33558 0.407495,0.16779 0.862931,-0.0479 1.030723,-0.43146 0.167792,-0.43147 -0.04794,-0.91087 -0.479406,-1.07867 -0.119852,-0.0479 -0.263674,-0.0959 -0.383525,-0.14382 -0.407495,-0.14382 -0.79102,-0.35955 -1.126604,-0.59926 -0.311614,-0.2397 -0.575287,-0.55131 -0.76705,-0.8869 -0.191762,-0.35955 -0.311614,-0.79102 -0.311614,-1.31836 0,-0.55132 0.119852,-1.00676 0.311614,-1.41425 0.215733,-0.38353 0.479406,-0.71911 0.81499,-0.98278 0.335585,-0.26368 0.695139,-0.45544 1.126605,-0.57529 0.407495,-0.11985 0.791019,-0.19176 1.198515,-0.19176 0.767049,0 1.438218,0.14382 1.989535,0.45543 0.311613,0.19176 0.599257,0.4075 0.83896,0.6472 0.311614,0.31161 0.79102,0.33558 1.126604,0.0479 0.407495,-0.33558 0.407495,-0.93484 0,-1.27042 -0.311614,-0.26368 -0.671168,-0.50338 -1.078663,-0.71911 -0.79102,-0.4075 -1.725862,-0.59926 -2.804526,-0.59926 -0.599257,0 -1.198515,0.0719 -1.797772,0.26367 -0.623228,0.16779 -1.174545,0.43147 -1.677921,0.81499 -0.503376,0.38353 -0.886901,0.86293 -1.198515,1.43822 -0.311614,0.59926 -0.479406,1.2944 -0.479406,2.08542 0,0.76705 0.119851,1.41424 0.383525,1.94159 0.239703,0.50338 0.575287,0.95881 0.982782,1.2944 z m 8.101962,2.87643 c -0.287644,-0.55131 -0.647199,-0.98278 -1.102634,-1.34233 -0.455436,-0.35956 -0.958812,-0.6472 -1.534099,-0.86293 -0.143822,-0.0719 -0.311614,-0.11986 -0.455436,-0.19177 -0.383525,-0.14382 -0.81499,0.0479 -0.958812,0.43147 l -0.04794,0.0959 c -0.167792,0.38352 0.04794,0.83896 0.431466,0.98278 v 0 c 0.479406,0.16779 0.886901,0.38353 1.270426,0.6472 0.359554,0.26367 0.647198,0.59926 0.86293,0.98278 0.215733,0.38353 0.335585,0.86293 0.335585,1.46219 0,0.52735 -0.119852,1.00675 -0.335585,1.39028 -0.215732,0.40749 -0.503376,0.74308 -0.83896,1.03072 -0.335584,0.26367 -0.719109,0.47941 -1.150575,0.62323 -0.431465,0.11985 -0.83896,0.19176 -1.246455,0.19176 -0.862931,0 -1.60601,-0.19176 -2.229238,-0.59926 -0.383525,-0.26367 -0.719109,-0.52734 -1.006753,-0.86293 -0.287643,-0.33558 -0.81499,-0.38352 -1.150574,-0.0959 -0.431466,0.31162 -0.455436,0.91087 -0.09588,1.2944 0.119851,0.11985 0.239703,0.21573 0.383524,0.33558 0.383525,0.31162 0.79102,0.57529 1.222486,0.79102 0.431465,0.19176 0.910871,0.35956 1.390277,0.45544 0.479406,0.0959 0.982782,0.14382 1.462188,0.14382 0.623228,0 1.270426,-0.0959 1.893654,-0.28764 0.647198,-0.1678 1.198515,-0.47941 1.677921,-0.86293 0.503377,-0.4075 0.886901,-0.91088 1.198515,-1.51013 0.311614,-0.59926 0.455436,-1.31837 0.455436,-2.15733 0,-0.83896 -0.143822,-1.5341 -0.431465,-2.08542 z m 18.864635,-5.44126 c -0.43147,-1.07866 -1.00676,-1.98953 -1.749835,-2.78055 -0.767049,-0.79102 -1.653951,-1.39028 -2.684674,-1.84571 -0.671168,-0.28765 -1.366307,-0.47941 -2.133356,-0.57529 -0.431466,-0.0719 -0.838961,0.28764 -0.838961,0.74308 v 0.024 c 0,0.38352 0.287644,0.69514 0.647198,0.74308 0.647198,0.0719 1.246456,0.26367 1.797773,0.52734 0.81499,0.38353 1.510129,0.91088 2.085416,1.58204 0.599258,0.67117 1.030723,1.46219 1.342337,2.34909 0.287643,0.86294 0.455432,1.79778 0.455432,2.78056 0,0.98278 -0.167789,1.91762 -0.455432,2.78055 -0.311614,0.88691 -0.743079,1.67793 -1.342337,2.32512 -0.575287,0.67117 -1.270426,1.19852 -2.085416,1.58204 -0.838961,0.4075 -1.773802,0.59926 -2.804525,0.59926 -1.030723,0 -1.965565,-0.19176 -2.780555,-0.59926 -0.838961,-0.38352 -1.534099,-0.91087 -2.109387,-1.58204 -0.575287,-0.64719 -1.030723,-1.43821 -1.318366,-2.32512 -0.311614,-0.86293 -0.455436,-1.79777 -0.455436,-2.78055 0,-0.98278 0.143822,-1.91762 0.455436,-2.78056 0.287643,-0.8869 0.743079,-1.67792 1.318366,-2.34909 0.575288,-0.67116 1.270426,-1.19851 2.109387,-1.58204 0.551317,-0.26367 1.126604,-0.45543 1.773802,-0.52734 0.383525,-0.0479 0.647198,-0.35956 0.647198,-0.74308 v -0.024 c 0,-0.45544 -0.383525,-0.81499 -0.83896,-0.74308 -0.74308,0.0959 -1.462189,0.28764 -2.133357,0.57529 -1.030723,0.45543 -1.917624,1.05469 -2.660703,1.84571 -0.76705,0.79102 -1.342337,1.70189 -1.773803,2.78055 -0.431465,1.07867 -0.623228,2.25321 -0.623228,3.54761 0,1.27043 0.191763,2.44497 0.623228,3.52363 0.431466,1.07867 1.006753,1.98954 1.773803,2.78056 0.743079,0.79102 1.62998,1.39028 2.660703,1.84571 1.030723,0.43147 2.133357,0.6472 3.331872,0.6472 1.198515,0 2.325119,-0.21573 3.331871,-0.6472 1.030723,-0.45543 1.917625,-1.05469 2.684674,-1.84571 0.743075,-0.79102 1.318365,-1.70189 1.749835,-2.78056 0.43146,-1.07866 0.6472,-2.2532 0.6472,-3.52363 0,-1.2944 -0.21574,-2.46894 -0.6472,-3.54761 z m 19.1283,0 c -0.43146,-1.07866 -1.00675,-1.98953 -1.74983,-2.78055 -0.76705,-0.79102 -1.65395,-1.39028 -2.68467,-1.84571 -0.67117,-0.28765 -1.36631,-0.47941 -2.13336,-0.57529 -0.43146,-0.0719 -0.83896,0.28764 -0.83896,0.74308 v 0.024 c 0,0.38352 0.28765,0.69514 0.6472,0.74308 0.6472,0.0719 1.24646,0.26367 1.79777,0.52734 0.81499,0.38353 1.51013,0.91088 2.08542,1.58204 0.59926,0.67117 1.03072,1.46219 1.34234,2.34909 0.28764,0.86294 0.45543,1.79778 0.45543,2.78056 0,0.98278 -0.16779,1.91762 -0.45543,2.78055 -0.31162,0.88691 -0.74308,1.67793 -1.34234,2.32512 -0.57529,0.67117 -1.27043,1.19852 -2.08542,1.58204 -0.83896,0.4075 -1.7738,0.59926 -2.80452,0.59926 -1.03073,0 -1.96557,-0.19176 -2.78056,-0.59926 -0.83896,-0.38352 -1.5341,-0.91087 -2.10938,-1.58204 -0.57529,-0.64719 -1.03073,-1.43821 -1.31837,-2.32512 -0.31161,-0.86293 -0.45544,-1.79777 -0.45544,-2.78055 0,-0.98278 0.14383,-1.91762 0.45544,-2.78056 0.28764,-0.8869 0.74308,-1.67792 1.31837,-2.34909 0.57528,-0.67116 1.27042,-1.19851 2.10938,-1.58204 0.55132,-0.26367 1.12661,-0.45543 1.7738,-0.52734 0.38353,-0.0479 0.6472,-0.35956 0.6472,-0.74308 v -0.024 c 0,-0.45544 -0.38352,-0.81499 -0.83896,-0.74308 -0.74308,0.0959 -1.46219,0.28764 -2.13335,0.57529 -1.03073,0.45543 -1.91763,1.05469 -2.66071,1.84571 -0.76705,0.79102 -1.34233,1.70189 -1.7738,2.78055 -0.43147,1.07867 -0.62323,2.25321 -0.62323,3.54761 0,1.27043 0.19176,2.44497 0.62323,3.52363 0.43147,1.07867 1.00675,1.98954 1.7738,2.78056 0.74308,0.79102 1.62998,1.39028 2.66071,1.84571 1.03072,0.43147 2.13335,0.6472 3.33187,0.6472 1.19851,0 2.32512,-0.21573 3.33187,-0.6472 1.03072,-0.45543 1.91762,-1.05469 2.68467,-1.84571 0.74308,-0.79102 1.31837,-1.70189 1.74983,-2.78056 0.43147,-1.07866 0.6472,-2.2532 0.6472,-3.52363 0,-1.2944 -0.21573,-2.46894 -0.6472,-3.54761 z m 6.13641,-4.24274 c -0.2397,-0.38352 -0.6472,-0.62323 -1.10263,-0.62323 -0.74308,0 -1.31837,0.59926 -1.31837,1.34234 v 14.62188 c 0,0.45544 0.35955,0.81499 0.81499,0.81499 0.45544,0 0.81499,-0.35955 0.81499,-0.81499 v -13.61513 h 0.0479 l 7.55065,11.64957 c 0.45543,0.67117 1.5341,0.35955 1.5341,-0.45544 0,-0.16779 -0.048,-0.33558 -0.14383,-0.45543 z m 9.87576,-0.62323 c -0.45543,0 -0.83896,0.38353 -0.83896,0.83896 v 15.12526 c 0,0.45544 0.38353,0.81499 0.83896,0.81499 v 0 c 0.45544,0 0.81499,-0.35955 0.81499,-0.81499 v -15.12526 c 0,-0.45543 -0.35955,-0.83896 -0.81499,-0.83896 z"
           id="text1-0"
           aria-label="Soon" />
        <path
           d="m 74.235542,160.82467 c 0.4075,0.359 0.863,0.647 1.3903,0.887 h 5e-4 c 0.2397,0.096 0.599,0.215 0.9104,0.335 h 4e-4 c 0.4074,0.168 0.8626,-0.048 1.0303,-0.431 l 2e-4,-0.001 c 0.1674,-0.431 -0.0483,-0.91 -0.4796,-1.078 h -5e-4 c -0.1197,-0.048 -0.2633,-0.096 -0.383,-0.144 h -4e-4 c -0.4074,-0.144 -0.7908,-0.359 -1.1262,-0.599 h -3e-4 c -0.3115,-0.24 -0.5751,-0.551 -0.7668,-0.887 h -2e-4 c -0.1916,-0.36 -0.3114,-0.791 -0.3114,-1.318 v -0.001 c 1e-4,-0.551 0.1199,-1.006 0.3116,-1.413 l 2e-4,-0.001 c 0.2157,-0.383 0.4793,-0.719 0.8148,-0.982 h 3e-4 c 0.3355,-0.264 0.695,-0.456 1.1263,-0.576 h 4e-4 c 0.4073,-0.119 0.7908,-0.191 1.1981,-0.191 h 4e-4 c 0.7669,0 1.4379,0.144 1.9892,0.455 h 3e-4 c 0.3115,0.192 0.599,0.408 0.8386,0.647 l 3e-4,0.001 c 0.3116,0.311 0.7908,0.335 1.1263,0.047 h 4e-4 c 0.4071,-0.336 0.407,-0.935 -4e-4,-1.27 h -3e-4 c -0.3115,-0.264 -0.671,-0.504 -1.0783,-0.719 h -4e-4 c -0.791,-0.408 -1.7257,-0.6 -2.8042,-0.6 h -6e-4 c -0.599,0.001 -1.1981,0.072 -1.7971,0.264 h -7e-4 c -0.6229,0.168 -1.1741,0.432 -1.6773,0.815 h -5e-4 c -0.5031,0.384 -0.8865,0.863 -1.198,1.438 l -3e-4,0.001 c -0.3114,0.599 -0.4791,1.294 -0.4791,2.085 v 0 c 1e-4,0.767 0.1199,1.414 0.3835,1.941 l 3e-4,10e-4 c 0.2397,0.503 0.5752,0.958 0.9825,1.294 z m 5.4013,1.917 m 2.7007,0.959 c -0.096,-0.184 -0.2159,-0.328 -0.3678,-0.448 -0.1918,-0.367 -0.4314,-0.655 -0.7349,-0.894 -0.1519,-0.12 -0.3199,-0.216 -0.5118,-0.288 -0.3035,-0.24 -0.6389,-0.431 -1.0223,-0.575 -0.0481,-0.024 -0.1042,-0.04 -0.1523,-0.064 -0.0958,-0.048 -0.2074,-0.08 -0.3031,-0.128 -0.128,-0.048 -0.2719,0.016 -0.32,0.144 -0.2556,-0.096 -0.543,0.032 -0.6388,0.288 l -0.0161,0.032 -0.0318,0.064 c -0.056,0.128 0.0158,0.279 0.1436,0.328 -0.1115,0.255 0.0323,0.559 0.2878,0.654 v 0 h 5e-4 c 0.16,0.056 0.2959,0.128 0.4239,0.216 0.3192,0.112 0.5906,0.256 0.8461,0.432 0.1199,0.088 0.2159,0.199 0.2879,0.327 0.2396,0.176 0.4312,0.4 0.575,0.655 0.072,0.128 0.112,0.288 0.1121,0.488 0.1436,0.256 0.2235,0.575 0.2235,0.975 0,0.175 -0.04,0.335 -0.1119,0.463 -1e-4,0.352 -0.08,0.671 -0.2237,0.927 -0.072,0.136 -0.1679,0.248 -0.2799,0.344 -0.1438,0.271 -0.3355,0.495 -0.5591,0.687 -0.1119,0.087 -0.2399,0.159 -0.3838,0.208 -0.2237,0.175 -0.4792,0.319 -0.7668,0.415 -0.1439,0.04 -0.2799,0.064 -0.4159,0.064 -0.2874,0.08 -0.559,0.127 -0.8305,0.127 -0.2878,0 -0.5356,-0.063 -0.7435,-0.199 -0.5751,0 -1.0704,-0.128 -1.4857,-0.4 -0.128,-0.088 -0.24,-0.176 -0.336,-0.288 -0.2555,-0.175 -0.4791,-0.351 -0.6708,-0.575 -0.096,-0.112 -0.2718,-0.128 -0.3838,-0.032 -0.1918,-0.223 -0.5432,-0.255 -0.7668,-0.064 -0.1439,0.104 -0.1521,0.304 -0.0324,0.432 -0.2872,0.208 -0.303,0.607 -0.0635,0.863 0.0402,0.04 0.0803,0.072 0.1284,0.112 0.0797,0.08 0.1595,0.144 0.2552,0.223 0.1279,0.104 0.2639,0.192 0.4078,0.264 0.2556,0.208 0.5272,0.384 0.8147,0.527 0.1439,0.064 0.3039,0.12 0.4638,0.152 0.2875,0.128 0.607,0.24 0.9264,0.304 0.16,0.032 0.3279,0.048 0.4879,0.048 0.3195,0.064 0.6549,0.096 0.9743,0.096 0.208,0 0.4239,-0.032 0.6318,-0.096 0.4153,0 0.8466,-0.064 1.2619,-0.192 0.2159,-0.056 0.3999,-0.16 0.5599,-0.288 0.4312,-0.112 0.7986,-0.319 1.118,-0.575 0.168,-0.136 0.296,-0.304 0.4,-0.504 0.3353,-0.271 0.5909,-0.607 0.7985,-1.006 0.104,-0.2 0.152,-0.44 0.1521,-0.72 0.2076,-0.399 0.3033,-0.878 0.3033,-1.437 0,-0.28 -0.0479,-0.512 -0.1438,-0.696 0,-0.559 -0.0959,-1.022 -0.2876,-1.39 z m 12.5764,-3.627 m 6.287798,-1.814 c -0.143,-0.36 -0.335,-0.664 -0.583,-0.927 -0.288,-0.719 -0.670998,-1.327 -1.166598,-1.854 -0.2556,-0.263 -0.5512,-0.463 -0.8947,-0.615 -0.5114,-0.527 -1.1028,-0.927 -1.79,-1.23 -0.2236,-0.096 -0.4553,-0.16 -0.7109,-0.192 -0.4475,-0.192 -0.911,-0.32 -1.4225,-0.384 -0.1437,-0.023 -0.2794,0.096 -0.2794,0.248 -0.2876,-0.048 -0.5593,0.192 -0.5593,0.496 v 0.007 0.017 c 10e-5,0.127 0.0959,0.231 0.2157,0.247 1e-4,0.256 0.192,0.464 0.4318,0.496 0.2156,0.024 0.4153,0.087 0.5989,0.175 0.4316,0.048 0.8312,0.176 1.1988,0.352 0.2715,0.128 0.5032,0.304 0.6949,0.527 0.5434,0.256 1.0069,0.608 1.3904,1.055 0.1997,0.224 0.3435,0.487 0.4473,0.783 0.3996,0.447 0.6872,0.975 0.895,1.566 0.0958,0.288 0.1517,0.599 0.1517,0.927 0.191898,0.575 0.303898,1.199 0.303898,1.854 0,0.327 -0.056,0.639 -0.151998,0.926 0,0.656 -0.112,1.279 -0.3038,1.854 -0.1038,0.296 -0.2476,0.56 -0.4473,0.775 -0.2078,0.592 -0.4955,1.119 -0.8951,1.55 -0.1917,0.224 -0.4234,0.4 -0.695,0.528 -0.3836,0.447 -0.847,0.799 -1.3904,1.054 -0.2796,0.136 -0.5912,0.2 -0.9347,0.2 -0.5594,0.272 -1.1827,0.4 -1.8699,0.4 -0.3435,0 -0.655,-0.064 -0.9266,-0.2 -0.6872,0 -1.3105,-0.128 -1.8539,-0.4 -0.2796,-0.128 -0.5112,-0.303 -0.7029,-0.527 -0.5594,-0.256 -1.0229,-0.607 -1.4064,-1.055 -0.1917,-0.216 -0.3435,-0.479 -0.4394,-0.775 -0.3835,-0.431 -0.6872,-0.959 -0.8789,-1.55 -0.1039,-0.288 -0.1518,-0.599 -0.1518,-0.927 -0.2077,-0.575 -0.3036,-1.198 -0.3036,-1.854 0,-0.327 0.048,-0.639 0.1518,-0.926 0,-0.656 0.0959,-1.279 0.3037,-1.854 0.0959,-0.296 0.2477,-0.559 0.4394,-0.783 0.1918,-0.591 0.4955,-1.119 0.879,-1.566 0.1918,-0.224 0.4234,-0.4 0.703,-0.527 0.3836,-0.448 0.8472,-0.799 1.4066,-1.055 0.1836,-0.088 0.3753,-0.152 0.5909,-0.176 0.3677,-0.176 0.7512,-0.304 1.1828,-0.351 0.1277,-0.017 0.2155,-0.12 0.2155,-0.248 0.2557,-0.032 0.4315,-0.24 0.4315,-0.496 v -0.008 -0.016 c -10e-5,-0.151 -0.1279,-0.271 -0.2797,-0.247 0,-0.304 -0.2558,-0.544 -0.5595,-0.496 -0.2476,0.032 -0.4872,0.096 -0.7109,0.192 -0.4955,0.064 -0.975,0.192 -1.4225,0.384 -0.3435,0.152 -0.639,0.351 -0.8866,0.615 -0.6872,0.304 -1.2786,0.703 -1.774,1.231 -0.2556,0.263 -0.4473,0.567 -0.5911,0.926 -0.5114,0.528 -0.895,1.135 -1.1826,1.854 -0.1438,0.36 -0.2077,0.751 -0.2077,1.182 -0.2876,0.72 -0.4155,1.503 -0.4155,2.366 1e-4,0.423 0.064,0.815 0.2078,1.174 0,0.847 0.1279,1.63 0.4156,2.349 0.1438,0.36 0.3355,0.663 0.5911,0.927 0.2877,0.719 0.6713,1.327 1.1827,1.854 0.2477,0.264 0.5433,0.463 0.8868,0.615 0.4954,0.527 1.0868,0.927 1.774,1.231 0.3435,0.143 0.711,0.215 1.1104,0.215 0.6872,0.288 1.4224,0.432 2.2215,0.432 0.3994,0 0.7749,-0.072 1.1104,-0.216 0.7991,0 1.5502,-0.144 2.2215,-0.432 0.3434,-0.151 0.639,-0.351 0.8946,-0.615 0.6872,-0.303 1.2785,-0.703 1.79,-1.23 0.2476,-0.264 0.4392,-0.568 0.583198,-0.927 0.495,-0.528 0.879,-1.135 1.167,-1.854 0.143,-0.36 0.215,-0.751 0.215,-1.174 0.288,-0.72 0.432,-1.503 0.432,-2.35 0,-0.431 -0.072,-0.823 -0.216,-1.182 0,-0.863 -0.144,-1.646 -0.432,-2.365 m 6.377,0 z m 12.752,0 c -0.288,-0.72 -0.672,-1.327 -1.167,-1.854 -0.144,-0.36 -0.336,-0.663 -0.583,-0.927 -0.512,-0.527 -1.103,-0.927 -1.79,-1.23 -0.256,-0.264 -0.551,-0.464 -0.895,-0.615 -0.447,-0.192 -0.911,-0.32 -1.422,-0.384 -0.224,-0.096 -0.456,-0.16 -0.711,-0.192 -0.288,-0.048 -0.56,0.192 -0.56,0.496 -0.143,-0.024 -0.279,0.096 -0.279,0.247 v 0.017 0.007 c 0,0.256 0.192,0.464 0.431,0.496 0,0.128 0.096,0.232 0.216,0.248 0.432,0.048 0.831,0.175 1.199,0.351 0.216,0.024 0.415,0.088 0.599,0.176 0.543,0.256 1.007,0.607 1.39,1.055 0.272,0.128 0.504,0.303 0.695,0.527 0.4,0.447 0.688,0.975 0.895,1.566 0.2,0.224 0.344,0.487 0.448,0.783 0.191,0.575 0.303,1.199 0.303,1.854 0.096,0.288 0.152,0.599 0.152,0.927 0,0.655 -0.112,1.278 -0.304,1.854 0,0.327 -0.056,0.639 -0.151,0.926 -0.208,0.591 -0.496,1.119 -0.895,1.55 -0.104,0.296 -0.248,0.56 -0.448,0.775 -0.383,0.448 -0.847,0.799 -1.39,1.055 -0.192,0.224 -0.424,0.399 -0.695,0.527 -0.56,0.272 -1.183,0.4 -1.87,0.4 -0.28,0.136 -0.591,0.2 -0.935,0.2 -0.687,0 -1.31,-0.128 -1.854,-0.4 -0.343,0 -0.655,-0.064 -0.926,-0.2 -0.56,-0.255 -1.023,-0.607 -1.407,-1.054 -0.279,-0.128 -0.511,-0.304 -0.703,-0.528 -0.383,-0.431 -0.687,-0.959 -0.879,-1.55 -0.191,-0.216 -0.343,-0.479 -0.439,-0.775 -0.208,-0.575 -0.304,-1.199 -0.304,-1.854 -0.103,-0.287 -0.151,-0.599 -0.151,-0.926 0,-0.656 0.095,-1.279 0.303,-1.854 0,-0.328 0.048,-0.639 0.152,-0.927 0.192,-0.591 0.495,-1.119 0.879,-1.566 0.096,-0.296 0.248,-0.559 0.439,-0.783 0.384,-0.448 0.847,-0.799 1.407,-1.055 0.192,-0.224 0.423,-0.399 0.703,-0.527 0.367,-0.176 0.751,-0.304 1.183,-0.352 0.183,-0.088 0.375,-0.151 0.591,-0.175 0.255,-0.032 0.431,-0.24 0.431,-0.496 0.128,-0.016 0.216,-0.12 0.216,-0.248 v -0.016 -0.008 c 0,-0.303 -0.256,-0.543 -0.56,-0.495 0,-0.152 -0.127,-0.272 -0.279,-0.248 -0.496,0.064 -0.975,0.192 -1.423,0.384 -0.247,0.032 -0.487,0.096 -0.711,0.192 -0.687,0.303 -1.278,0.703 -1.774,1.23 -0.343,0.152 -0.639,0.352 -0.886,0.615 -0.512,0.528 -0.895,1.135 -1.183,1.854 -0.256,0.264 -0.447,0.567 -0.591,0.927 -0.288,0.719 -0.416,1.502 -0.416,2.365 -0.143,0.36 -0.207,0.751 -0.207,1.183 0,0.847 0.128,1.63 0.415,2.349 0,0.423 0.064,0.815 0.208,1.174 0.288,0.719 0.671,1.327 1.183,1.854 0.143,0.36 0.335,0.663 0.591,0.927 0.495,0.527 1.087,0.927 1.774,1.23 0.247,0.264 0.543,0.464 0.886,0.615 0.688,0.288 1.423,0.432 2.222,0.432 0.343,0.144 0.711,0.216 1.11,0.216 0.799,0 1.551,-0.144 2.222,-0.432 0.399,0 0.775,-0.072 1.11,-0.216 0.687,-0.303 1.279,-0.703 1.79,-1.23 0.344,-0.152 0.639,-0.352 0.895,-0.615 0.495,-0.528 0.879,-1.135 1.167,-1.854 0.247,-0.264 0.439,-0.567 0.583,-0.927 0.287,-0.719 0.431,-1.502 0.431,-2.349 0.144,-0.36 0.216,-0.751 0.216,-1.174 0,-0.863 -0.144,-1.647 -0.432,-2.366 0,-0.431 -0.071,-0.823 -0.215,-1.182 z m 2.045,-1.414 z m 4.091,-2.829 c -0.16,-0.256 -0.432,-0.416 -0.735,-0.416 -0.08,-0.127 -0.216,-0.207 -0.368,-0.207 -0.495,0 -0.879,0.399 -0.879,0.895 -0.247,0 -0.439,0.2 -0.439,0.447 v 9.748 4.874 c 0,0.304 0.24,0.544 0.543,0.544 0.001,0.151 0.12,0.271 0.272,0.271 0.304,0 0.544,-0.24 0.544,-0.543 0.151,0 0.271,-0.12 0.271,-0.272 v -9.077 -4.538 h 0.032 0.016 l 5.034,7.767 2.517,3.883 c 0.303,0.447 1.022,0.239 1.023,-0.304 0.151,0.224 0.511,0.12 0.511,-0.152 0,-0.112 -0.032,-0.224 -0.096,-0.304 0,-0.056 -0.016,-0.111 -0.048,-0.151 l -5.465,-8.31 z m 3.292,-0.208 m 6.584,-0.415 c -0.304,0 -0.56,0.256 -0.56,0.559 -0.151,0 -0.279,0.128 -0.279,0.28 v 10.084 5.041 c 0,0.304 0.256,0.544 0.559,0.544 0,0.151 0.128,0.271 0.28,0.271 v 0 0 c 0.304,0 0.544,-0.24 0.544,-0.543 0.151,0 0.271,-0.12 0.271,-0.272 v -10.084 -5.041 c 0,-0.304 -0.24,-0.56 -0.543,-0.56 -0.001,-0.151 -0.12,-0.279 -0.272,-0.279"
           style="opacity:0.7;fill:#c362e9;fill-opacity:1;stroke:#c362e9;stroke-width:1.85208;stroke-dasharray:none;stroke-opacity:1;filter:url(#filter9)"
           id="path8" />
        <path
           d="m 74.235743,160.82437 c 0.4075,0.3595 0.8629,0.6472 1.3903,0.8869 l 2e-4,10e-5 c 0.2397,0.0959 0.5991,0.2156 0.9106,0.3355 h 2e-4 c 0.4075,0.1677 0.8628,-0.048 1.0306,-0.4315 v -2e-4 c 0.1677,-0.4314 -0.0481,-0.9107 -0.4794,-1.0785 l -3e-4,-10e-5 c -0.1198,-0.0478 -0.2635,-0.0958 -0.3833,-0.1437 l -2e-4,-10e-5 c -0.4074,-0.1438 -0.7908,-0.3595 -1.1264,-0.5991 l -10e-5,-2e-4 c -0.3116,-0.2397 -0.5752,-0.5512 -0.7669,-0.8867 l -1e-4,-2e-4 c -0.1917,-0.3595 -0.3115,-0.791 -0.3115,-1.3182 v -3e-4 c 0,-0.5512 0.1198,-1.0065 0.3116,-1.414 l 1e-4,-1e-4 c 0.2157,-0.3835 0.4793,-0.719 0.8149,-0.9826 l 1e-4,-2e-4 c 0.3356,-0.2636 0.6951,-0.4553 1.1265,-0.5751 l 2e-4,-1e-4 c 0.4074,-0.1198 0.7909,-0.1917 1.1983,-0.1917 h 2e-4 c 0.7669,0 1.438,0.1439 1.9893,0.4554 l 2e-4,1e-4 c 0.3115,0.1918 0.5991,0.4075 0.8388,0.6471 l 1e-4,2e-4 c 0.3116,0.3115 0.791,0.3354 1.1265,0.0477 l 2e-4,-1e-4 c 0.4073,-0.3356 0.4072,-0.9348 -2e-4,-1.2703 l -2e-4,-1e-4 c -0.3115,-0.2636 -0.6711,-0.5033 -1.0785,-0.719 l -2e-4,-1e-4 c -0.791,-0.4074 -1.7257,-0.5991 -2.8043,-0.5991 h -3e-4 c -0.5992,0 -1.1983,0.0719 -1.7975,0.2636 l -3e-4,1e-4 c -0.6231,0.1678 -1.1743,0.4315 -1.6776,0.8149 l -2e-4,2e-4 c -0.5033,0.3835 -0.8868,0.8628 -1.1983,1.438 l -2e-4,3e-4 c -0.3115,0.5992 -0.4792,1.2943 -0.4792,2.0852 v 1e-4 c 0,0.767 0.1199,1.4141 0.3835,1.9414 l 1e-4,3e-4 c 0.2397,0.5033 0.5753,0.9586 0.9827,1.2941 z m 2.7006,0.9588 m 5.4013,1.9176 c -0.1918,-0.3676 -0.4315,-0.6554 -0.7352,-0.8951 -0.0958,-0.1837 -0.2156,-0.3274 -0.3674,-0.4472 -0.3037,-0.2398 -0.6393,-0.4316 -1.0229,-0.5755 -0.1518,-0.1198 -0.3195,-0.2156 -0.5112,-0.2874 -0.096,-0.048 -0.2079,-0.08 -0.3039,-0.128 -0.0479,-0.0239 -0.1037,-0.0399 -0.1515,-0.0638 -0.2558,-0.0959 -0.5435,0.0319 -0.6394,0.2876 -0.1278,-0.0479 -0.2715,0.0161 -0.3194,0.1439 l -0.032,0.064 -0.016,0.0319 c -0.1119,0.2557 0.0319,0.5594 0.2876,0.6553 -0.0558,0.1278 0.0161,0.2795 0.1439,0.3274 v 0 l 2e-4,1e-4 c 0.3197,0.1119 0.5915,0.2558 0.8472,0.4316 0.1596,0.0559 0.2953,0.1277 0.423,0.2155 0.2398,0.1759 0.4316,0.3996 0.5755,0.6553 0.1198,0.0879 0.2156,0.1997 0.2875,0.3275 0.1438,0.2558 0.2237,0.5754 0.2238,0.975 0.0718,0.1278 0.1117,0.2875 0.1117,0.4872 0,0.3517 -0.0799,0.6713 -0.2237,0.9271 0,0.1757 -0.04,0.3354 -0.1118,0.4632 -0.1439,0.2717 -0.3357,0.4955 -0.5595,0.6873 -0.0719,0.1358 -0.1677,0.2476 -0.2795,0.3434 -0.2238,0.1758 -0.4795,0.3197 -0.7672,0.4156 -0.1118,0.0878 -0.2396,0.1597 -0.3834,0.2076 -0.2877,0.08 -0.5594,0.1279 -0.8312,0.1279 -0.1437,0.0399 -0.2795,0.0639 -0.4152,0.0639 -0.5754,0 -1.0709,-0.1278 -1.4864,-0.3995 -0.2876,0 -0.5352,-0.064 -0.7429,-0.1998 -0.2557,-0.1758 -0.4795,-0.3516 -0.6713,-0.5754 -0.1278,-0.0878 -0.2396,-0.1757 -0.3354,-0.2875 -0.1918,-0.2238 -0.5435,-0.2558 -0.7672,-0.0641 -0.0959,-0.1117 -0.2716,-0.1276 -0.3834,-0.0318 -0.2877,0.2078 -0.3038,0.6073 -0.0641,0.8631 -0.1437,0.1039 -0.1516,0.3035 -0.0318,0.4313 0.08,0.08 0.16,0.144 0.2559,0.224 0.0399,0.0398 0.0798,0.0717 0.1276,0.1116 0.2558,0.2078 0.5275,0.3836 0.8152,0.5275 0.1278,0.1038 0.2636,0.1916 0.4073,0.2635 0.2877,0.1279 0.6074,0.2398 0.9271,0.3037 0.1438,0.0639 0.3035,0.1198 0.4632,0.1517 0.3197,0.064 0.6553,0.096 0.975,0.096 0.1598,0.0319 0.3275,0.0479 0.4872,0.0479 0.4156,0 0.8471,-0.064 1.2627,-0.1918 0.2077,0 0.4233,-0.032 0.6309,-0.0959 0.4316,-0.1119 0.7993,-0.3196 1.119,-0.5753 0.2156,-0.056 0.3992,-0.1598 0.559,-0.2876 0.3356,-0.2717 0.5914,-0.6074 0.7992,-1.007 0.1677,-0.1358 0.2955,-0.3035 0.3993,-0.5031 0.2078,-0.3996 0.3037,-0.8791 0.3038,-1.4386 0.1037,-0.1996 0.1516,-0.4393 0.1516,-0.7188 0,-0.5593 -0.0959,-1.0228 -0.2876,-1.3905 -1e-4,-0.2795 -0.048,-0.5112 -0.1438,-0.6949 z m 6.2883,-1.8137 m 12.576597,-3.6275 c -0.288,-0.7192 -0.671,-1.3266 -1.167,-1.854 -0.143997,-0.3596 -0.335997,-0.6632 -0.583397,-0.927 -0.5113,-0.5271 -1.1025,-0.9265 -1.7894,-1.2301 -0.2558,-0.2637 -0.5516,-0.4635 -0.8953,-0.6153 -0.4473,-0.1917 -0.9106,-0.3195 -1.4219,-0.3834 -0.2238,-0.0959 -0.4557,-0.1599 -0.7115,-0.1919 -0.2875,-0.0476 -0.5589,0.192 -0.5589,0.4955 -0.1438,-0.024 -0.2796,0.0959 -0.2796,0.2479 v 0.0158 0.008 c 1e-4,0.2555 0.1918,0.463 0.4314,0.495 2e-4,0.1278 0.0963,0.2317 0.2164,0.2477 0.4312,0.048 0.8305,0.1758 1.1979,0.3515 0.2158,0.024 0.4157,0.088 0.5996,0.176 0.5432,0.2557 1.0065,0.6072 1.3899,1.0545 0.2718,0.1279 0.5036,0.3038 0.6954,0.5277 0.3994,0.4473 0.6869,0.9746 0.8946,1.5657 0.1998,0.2239 0.3437,0.4877 0.4476,0.7835 0.1912,0.5751 0.3032,1.1982 0.3032,1.8532 0.096,0.2878 0.151997,0.5996 0.151997,0.9274 0,0.655 -0.112,1.278 -0.303997,1.8532 0,0.3277 -0.056,0.6395 -0.1515,0.9273 -0.2077,0.5911 -0.4953,1.1183 -0.8947,1.5496 -0.104,0.2958 -0.2479,0.5595 -0.4477,0.7754 -0.3835,0.4473 -0.8468,0.7987 -1.39,1.0544 -0.1919,0.2237 -0.4238,0.3996 -0.6956,0.5275 -0.5592,0.2715 -1.1823,0.3993 -1.8693,0.3993 -0.2798,0.1358 -0.5916,0.1998 -0.9353,0.1998 -0.6869,-1e-4 -1.31,-0.1279 -1.8532,-0.3995 -0.3437,-10e-5 -0.6555,-0.0641 -0.9273,-0.2 -0.5591,-0.2557 -1.0224,-0.6072 -1.4058,-1.0545 -0.2798,-0.1279 -0.5116,-0.3038 -0.7034,-0.5277 -0.3834,-0.4314 -0.6869,-0.9586 -0.8786,-1.5497 -0.1919,-0.2159 -0.3437,-0.4797 -0.4397,-0.7755 -0.2076,-0.5752 -0.3034,-1.1982 -0.3034,-1.8533 -0.1039,-0.2878 -0.1518,-0.5995 -0.1518,-0.9273 0,-0.655 0.0959,-1.2781 0.3036,-1.8532 0,-0.3278 0.048,-0.6395 0.1519,-0.9273 0.1918,-0.5911 0.4954,-1.1183 0.8788,-1.5656 0.096,-0.2958 0.2479,-0.5596 0.4397,-0.7834 0.3835,-0.4473 0.8468,-0.7987 1.406,-1.0544 0.192,-0.2238 0.4239,-0.3996 0.7037,-0.5276 0.3674,-0.1756 0.7507,-0.3033 1.182,-0.3513 0.1839,-0.0879 0.3758,-0.1518 0.5916,-0.1758 0.2555,-0.0321 0.4311,-0.2398 0.4311,-0.4953 0.1279,-0.016 0.2157,-0.1199 0.2157,-0.2479 v -0.0158 -0.008 c -2e-4,-0.3034 -0.2558,-0.5428 -0.5593,-0.4949 -1e-4,-0.1518 -0.128,-0.2716 -0.28,-0.2477 -0.4952,0.064 -0.9745,0.1918 -1.4218,0.3835 -0.2479,0.0321 -0.4878,0.0961 -0.7117,0.192 -0.6869,0.3036 -1.278,0.703 -1.7733,1.2303 -0.3437,0.1519 -0.6394,0.3518 -0.8872,0.6156 -0.5112,0.5272 -0.8946,1.1344 -1.1822,1.8533 -0.2558,0.2638 -0.4476,0.5676 -0.5915,0.9274 -0.2875,0.7189 -0.4153,1.5018 -0.4153,2.3645 -0.1438,0.3598 -0.2077,0.7515 -0.2077,1.1832 1e-4,0.8467 0.1279,1.6295 0.4155,2.3484 1e-4,0.4237 0.064,0.8154 0.2079,1.1751 0.2877,0.7189 0.6711,1.326 1.1824,1.8532 0.1439,0.3597 0.3358,0.6634 0.5916,0.9272 0.4953,0.5272 1.0865,0.9266 1.7734,1.2301 0.2479,0.2638 0.5437,0.4636 0.8874,0.6155 0.687,0.2875 1.422,0.4312 2.2208,0.4312 0.3438,0.1439 0.7115,0.2158 1.1112,0.2158 0.7988,-10e-5 1.5496,-0.1439 2.2207,-0.4315 0.3996,-10e-5 0.7753,-0.0721 1.1111,-0.216 0.6869,-0.3036 1.278,-0.703 1.7893,-1.2302 0.3437,-0.152 0.6394,-0.3518 0.8952,-0.6156 0.4957,-0.5273 0.878697,-1.1344 1.166697,-1.8534 0.247,-0.2638 0.439,-0.5676 0.583,-0.9273 0.287,-0.719 0.431,-1.5018 0.431,-2.3486 0.144,-0.3598 0.216,-0.7515 0.216,-1.1752 0,-0.8627 -0.144,-1.6455 -0.431,-2.3644 0,-0.4315 -0.072,-0.823 -0.216,-1.1825 m 12.752,0 z m 6.376,-6e-4 c -0.144,-0.3597 -0.336,-0.6635 -0.584,-0.9274 -0.287,-0.7186 -0.671,-1.3255 -1.166,-1.8526 -0.256,-0.2638 -0.551,-0.4637 -0.895,-0.6156 -0.511,-0.5272 -1.102,-0.9266 -1.789,-1.2301 -0.224,-0.0959 -0.456,-0.1599 -0.712,-0.1919 -0.447,-0.1917 -0.911,-0.3195 -1.422,-0.3834 -0.144,-0.024 -0.28,0.0958 -0.28,0.2476 -0.287,-0.0476 -0.559,0.192 -0.559,0.4955 v 0.008 0.0158 c 0,0.1279 0.096,0.2319 0.216,0.248 0,0.2556 0.192,0.4631 0.431,0.4951 0.216,0.024 0.416,0.0879 0.6,0.1758 0.432,0.048 0.831,0.1758 1.198,0.3515 0.272,0.1279 0.504,0.3038 0.696,0.5275 0.543,0.2557 1.006,0.6072 1.39,1.0545 0.2,0.2239 0.343,0.4877 0.447,0.7834 0.4,0.4474 0.687,0.9746 0.895,1.5657 0.096,0.2878 0.152,0.5996 0.152,0.9273 0.192,0.5752 0.303,1.1983 0.303,1.8533 0,0.3277 -0.056,0.6395 -0.151,0.9273 0,0.655 -0.112,1.2781 -0.304,1.8532 -0.104,0.2958 -0.248,0.5596 -0.448,0.7755 -0.207,0.5911 -0.495,1.1183 -0.894,1.5497 -0.192,0.2238 -0.424,0.3997 -0.696,0.5276 -0.383,0.4473 -0.847,0.7988 -1.39,1.0544 -0.28,0.1359 -0.591,0.1999 -0.935,0.2 -0.559,0.2715 -1.182,0.3993 -1.869,0.3993 -0.344,0 -0.656,-0.064 -0.928,-0.1998 -0.687,-1e-4 -1.31,-0.1279 -1.853,-0.3995 -0.28,-0.1279 -0.511,-0.3037 -0.703,-0.5275 -0.56,-0.2557 -1.023,-0.6072 -1.406,-1.0545 -0.192,-0.2159 -0.344,-0.4797 -0.44,-0.7754 -0.383,-0.4314 -0.687,-0.9586 -0.879,-1.5498 -0.104,-0.2877 -0.152,-0.5995 -0.152,-0.9272 -0.207,-0.5752 -0.303,-1.1983 -0.303,-1.8533 0,-0.3278 0.048,-0.6395 0.152,-0.9273 0,-0.6551 0.096,-1.2781 0.303,-1.8533 0.096,-0.2957 0.248,-0.5596 0.44,-0.7834 0.192,-0.5911 0.495,-1.1183 0.879,-1.5657 0.192,-0.2238 0.423,-0.3997 0.703,-0.5276 0.384,-0.4473 0.847,-0.7988 1.406,-1.0544 0.184,-0.088 0.376,-0.152 0.592,-0.176 0.367,-0.1757 0.751,-0.3034 1.182,-0.3513 0.128,-0.016 0.216,-0.1199 0.216,-0.2478 0.256,-0.0321 0.431,-0.2398 0.431,-0.4953 v -0.008 -0.0158 c 0,-0.152 -0.128,-0.272 -0.28,-0.2482 0,-0.3034 -0.255,-0.5428 -0.559,-0.4949 -0.248,0.032 -0.487,0.0959 -0.711,0.1918 -0.496,0.064 -0.975,0.1918 -1.422,0.3835 -0.344,0.1519 -0.64,0.3517 -0.888,0.6154 -0.687,0.3036 -1.278,0.7031 -1.773,1.2303 -0.256,0.2638 -0.448,0.5676 -0.592,0.9272 -0.511,0.5273 -0.894,1.1344 -1.182,1.8534 -0.144,0.3597 -0.208,0.7514 -0.208,1.183 -0.287,0.719 -0.415,1.5018 -0.415,2.3646 0,0.4236 0.064,0.8154 0.208,1.1751 0,0.8467 0.128,1.6296 0.415,2.3485 0.144,0.3597 0.336,0.6635 0.592,0.9274 0.287,0.7189 0.671,1.3259 1.182,1.8532 0.248,0.2638 0.544,0.4636 0.887,0.6156 0.496,0.5271 1.087,0.9265 1.774,1.2301 0.344,0.1439 0.711,0.2158 1.111,0.2159 0.687,0.2875 1.422,0.4313 2.221,0.4313 0.399,0 0.775,-0.0719 1.111,-0.2158 0.799,0 1.55,-0.1439 2.221,-0.4314 0.343,-0.1519 0.639,-0.3518 0.895,-0.6155 0.687,-0.3036 1.278,-0.703 1.789,-1.2302 0.248,-0.2639 0.44,-0.5676 0.584,-0.9273 0.495,-0.5272 0.879,-1.1344 1.166,-1.8533 0.144,-0.3597 0.216,-0.7514 0.216,-1.1751 0.288,-0.7189 0.431,-1.5018 0.431,-2.3485 0,-0.4317 -0.072,-0.8234 -0.215,-1.1832 -0.001,-0.8627 -0.144,-1.6455 -0.432,-2.3644 z m 4.091,-2.8279 z m 2.045,-1.4147 c -0.08,-0.1279 -0.216,-0.208 -0.368,-0.2081 -0.159,-0.2552 -0.431,-0.4147 -0.734,-0.4147 -0.248,0 -0.44,0.1997 -0.44,0.4474 -0.495,2e-4 -0.879,0.3997 -0.879,0.8949 v 4.8744 9.7475 c 0,0.152 0.12,0.272 0.272,0.2721 0,0.3034 0.24,0.5429 0.543,0.5429 0.152,0 0.272,-0.1199 0.273,-0.2717 0.303,-2e-4 0.542,-0.2398 0.542,-0.5433 v -4.5388 -9.0763 h 0.017 0.031 l 2.517,3.8835 5.034,7.766 c 0.152,0.2239 0.512,0.1201 0.512,-0.1514 0.303,0.447 1.022,0.2392 1.022,-0.304 0,-0.0561 -0.016,-0.1123 -0.048,-0.1525 0,-0.1116 -0.032,-0.2232 -0.096,-0.3029 l -2.733,-4.1553 z m 6.584,-0.4151 m 3.292,-0.2077 c -0.152,0 -0.28,0.1278 -0.28,0.2796 -0.303,3e-4 -0.559,0.2559 -0.559,0.5593 v 5.0423 10.083 c 0,0.152 0.128,0.272 0.28,0.2721 0,0.3034 0.256,0.5429 0.559,0.5429 v 0 h 10e-4 c 0.152,0 0.272,-0.1199 0.272,-0.2717 0.303,-4e-4 0.542,-0.24 0.542,-0.5433 v -5.0422 -10.0831 c 0,-0.1519 -0.12,-0.2799 -0.271,-0.2801 -0.001,-0.3034 -0.24,-0.5588 -0.544,-0.5588"
           style="opacity:0.7;fill:#deadf1;fill-opacity:1;stroke:#deadf1;stroke-width:1.05833;stroke-dasharray:none;stroke-opacity:1;filter:url(#filter10)"
           id="path7" />
        <path
           style="font-size:23.9703px;font-family:KosanNonCommercial;-inkscape-font-specification:KosanNonCommercial;text-align:center;text-anchor:middle;opacity:0.23;fill:#1a1a1a;fill-opacity:1;stroke:#333333;stroke-width:0"
           d="m 74.887925,162.63415 c 0.40137,0.35416 0.849971,0.63748 1.369391,0.87359 0.23611,0.0944 0.590261,0.21249 0.897191,0.33054 0.40138,0.16527 0.849981,-0.0472 1.015251,-0.42498 0.165269,-0.42499 -0.04718,-0.8972 -0.472211,-1.06247 -0.11805,-0.0472 -0.25971,-0.0944 -0.37776,-0.14166 -0.40138,-0.14166 -0.779141,-0.35415 -1.109691,-0.59026 -0.30693,-0.2361 -0.566641,-0.54303 -0.755531,-0.87358 -0.18888,-0.35415 -0.30693,-0.77915 -0.30693,-1.29857 0,-0.54303 0.11805,-0.99163 0.30693,-1.393 0.212501,-0.37777 0.472211,-0.70832 0.802751,-0.96803 0.33055,-0.25972 0.684701,-0.4486 1.109691,-0.56665 0.40137,-0.11805 0.779141,-0.18888 1.180511,-0.18888 0.75553,0 1.416621,0.14166 1.959662,0.44859 0.30693,0.18888 0.590251,0.40138 0.82636,0.63748 0.306931,0.30694 0.779141,0.33055 1.109682,0.0472 0.40138,-0.33054 0.40138,-0.92081 0,-1.25135 -0.30693,-0.25972 -0.661091,-0.49582 -1.062461,-0.70831 -0.779141,-0.40138 -1.699941,-0.59025 -2.762413,-0.59025 -0.59025,0 -1.180511,0.0708 -1.770771,0.2597 -0.613871,0.16527 -1.156901,0.42499 -1.652722,0.80275 -0.495821,0.37777 -0.873581,0.84997 -1.180521,1.41663 -0.30693,0.59026 -0.472201,1.27495 -0.472201,2.05409 0,0.75554 0.118051,1.39301 0.377761,1.91243 0.23611,0.49582 0.56665,0.94442 0.968031,1.27497 z m 7.980287,2.83325 c -0.28333,-0.54304 -0.63748,-0.96803 -1.086081,-1.32218 -0.448591,-0.35416 -0.94441,-0.63748 -1.511051,-0.84997 -0.14167,-0.0708 -0.306941,-0.11806 -0.448601,-0.18889 -0.37777,-0.14166 -0.802751,0.0472 -0.944411,0.42499 l -0.04718,0.0944 c -0.16527,0.37776 0.04718,0.82636 0.424981,0.96802 v 0 c 0.472209,0.16527 0.87358,0.37777 1.251351,0.63748 0.35415,0.25971 0.63748,0.59026 0.84997,0.96802 0.21249,0.37777 0.330541,0.84997 0.330541,1.44023 0,0.51944 -0.118051,0.99164 -0.330541,1.3694 -0.21249,0.40137 -0.49582,0.73192 -0.82636,1.01524 -0.330541,0.25971 -0.708311,0.47221 -1.133301,0.61388 -0.424981,0.11805 -0.826361,0.18888 -1.227732,0.18888 -0.84997,0 -1.581891,-0.18888 -2.195761,-0.59027 -0.377761,-0.25971 -0.708311,-0.51942 -0.991631,-0.84997 -0.283321,-0.33054 -0.802752,-0.37776 -1.133302,-0.0944 -0.424981,0.30694 -0.44859,0.8972 -0.09446,1.27497 0.11806,0.11805 0.236111,0.21249 0.37777,0.33054 0.377761,0.30694 0.779141,0.56665 1.204121,0.77914 0.424991,0.18888 0.897201,0.35416 1.369402,0.4486 0.47221,0.0944 0.968021,0.14165 1.440231,0.14165 0.613871,0 1.251351,-0.0944 1.865212,-0.28331 0.63748,-0.16528 1.180521,-0.47221 1.652722,-0.84997 0.49582,-0.40138 0.87358,-0.8972 1.180521,-1.48746 0.306931,-0.59026 0.448601,-1.29856 0.448601,-2.12493 0,-0.82636 -0.14167,-1.51106 -0.424991,-2.05409 z m 18.581328,-5.35955 c -0.425,-1.06246 -0.99165,-1.95965 -1.723552,-2.7388 -0.755531,-0.77914 -1.629111,-1.3694 -2.644363,-1.81798 -0.66108,-0.28333 -1.345781,-0.47221 -2.101312,-0.56666 -0.42499,-0.0708 -0.82636,0.28333 -0.82636,0.73193 v 0.0237 c 0,0.37776 0.28332,0.6847 0.63747,0.73192 0.63748,0.0708 1.227742,0.25971 1.770782,0.51941 0.802751,0.37777 1.487451,0.8972 2.054092,1.55829 0.59026,0.66109 1.015251,1.44023 1.322179,2.31381 0.283314,0.84998 0.448584,1.77078 0.448584,2.7388 0,0.96802 -0.16527,1.88882 -0.448584,2.7388 -0.306928,0.87358 -0.731919,1.65272 -1.322179,2.2902 -0.566641,0.66109 -1.251341,1.18052 -2.054092,1.55827 -0.826361,0.40138 -1.747162,0.59027 -2.762413,0.59027 -1.01524,0 -1.936041,-0.18889 -2.738792,-0.59027 -0.826361,-0.37775 -1.511061,-0.89718 -2.077712,-1.55827 -0.566651,-0.63748 -1.015242,-1.41662 -1.298562,-2.2902 -0.30694,-0.84998 -0.4486,-1.77078 -0.4486,-2.7388 0,-0.96802 0.14166,-1.88882 0.4486,-2.7388 0.28332,-0.87358 0.731911,-1.65272 1.298562,-2.31381 0.566651,-0.66109 1.251351,-1.18052 2.077712,-1.55829 0.54303,-0.2597 1.10968,-0.44858 1.747162,-0.51941 0.37777,-0.0472 0.63748,-0.35416 0.63748,-0.73192 v -0.0237 c 0,-0.4486 -0.37777,-0.80276 -0.826361,-0.73193 -0.731921,0.0944 -1.440231,0.28333 -2.101321,0.56666 -1.015242,0.44858 -1.888822,1.03884 -2.620743,1.81798 -0.755531,0.77915 -1.322181,1.67634 -1.747162,2.7388 -0.42499,1.06247 -0.61387,2.21937 -0.61387,3.49433 0,1.25135 0.18888,2.40825 0.61387,3.47071 0.424981,1.06248 0.991631,1.95967 1.747162,2.7388 0.731921,0.77915 1.605501,1.36941 2.620743,1.818 1.01524,0.42499 2.101321,0.63747 3.281832,0.63747 1.180521,0 2.290203,-0.21248 3.281833,-0.63747 1.015252,-0.44859 1.888832,-1.03885 2.644363,-1.818 0.731902,-0.77913 1.298552,-1.67632 1.723552,-2.7388 0.42498,-1.06246 0.63748,-2.21936 0.63748,-3.47071 0,-1.27496 -0.2125,-2.43186 -0.63748,-3.49433 z m 18.84103,0 c -0.42497,-1.06246 -0.99162,-1.95965 -1.72355,-2.7388 -0.75553,-0.77914 -1.62911,-1.3694 -2.64435,-1.81798 -0.66109,-0.28333 -1.34579,-0.47221 -2.10133,-0.56666 -0.42498,-0.0708 -0.82635,0.28333 -0.82635,0.73193 v 0.0237 c 0,0.37776 0.28333,0.6847 0.63747,0.73192 0.63749,0.0708 1.22775,0.25971 1.77078,0.51941 0.80275,0.37777 1.48745,0.8972 2.0541,1.55829 0.59026,0.66109 1.01524,1.44023 1.32218,2.31381 0.28333,0.84998 0.4486,1.77078 0.4486,2.7388 0,0.96802 -0.16527,1.88882 -0.4486,2.7388 -0.30694,0.87358 -0.73192,1.65272 -1.32218,2.2902 -0.56665,0.66109 -1.25135,1.18052 -2.0541,1.55827 -0.82636,0.40138 -1.74717,0.59027 -2.7624,0.59027 -1.01525,0 -1.93606,-0.18889 -2.7388,-0.59027 -0.82636,-0.37775 -1.51107,-0.89718 -2.07771,-1.55827 -0.56665,-0.63748 -1.01524,-1.41662 -1.29856,-2.2902 -0.30694,-0.84998 -0.44861,-1.77078 -0.44861,-2.7388 0,-0.96802 0.14167,-1.88882 0.44861,-2.7388 0.28332,-0.87358 0.73191,-1.65272 1.29856,-2.31381 0.56664,-0.66109 1.25135,-1.18052 2.07771,-1.55829 0.54303,-0.2597 1.10968,-0.44858 1.74716,-0.51941 0.37777,-0.0472 0.63748,-0.35416 0.63748,-0.73192 v -0.0237 c 0,-0.4486 -0.37776,-0.80276 -0.82637,-0.73193 -0.73192,0.0944 -1.44022,0.28333 -2.1013,0.56666 -1.01526,0.44858 -1.88884,1.03884 -2.62075,1.81798 -0.75554,0.77915 -1.32218,1.67634 -1.74717,2.7388 -0.42499,1.06247 -0.61387,2.21937 -0.61387,3.49433 0,1.25135 0.18888,2.40825 0.61387,3.47071 0.42499,1.06248 0.99163,1.95967 1.74717,2.7388 0.73191,0.77915 1.60549,1.36941 2.62075,1.818 1.01523,0.42499 2.1013,0.63747 3.28183,0.63747 1.1805,0 2.2902,-0.21248 3.28183,-0.63747 1.01524,-0.44859 1.88882,-1.03885 2.64435,-1.818 0.73193,-0.77913 1.29858,-1.67632 1.72355,-2.7388 0.42499,-1.06246 0.63748,-2.21936 0.63748,-3.47071 0,-1.27496 -0.21249,-2.43186 -0.63748,-3.49433 z m 6.04426,-4.17903 c -0.2361,-0.37775 -0.63748,-0.61386 -1.08607,-0.61386 -0.73192,0 -1.29858,0.59026 -1.29858,1.32217 v 14.4023 c 0,0.4486 0.35416,0.80275 0.80276,0.80275 0.4486,0 0.80275,-0.35415 0.80275,-0.80275 v -13.41066 h 0.0472 l 7.43725,11.47461 c 0.44859,0.66109 1.51107,0.35415 1.51107,-0.44859 0,-0.16527 -0.0473,-0.33054 -0.14167,-0.44859 z m 9.72745,-0.61386 c -0.44859,0 -0.82636,0.37777 -0.82636,0.82635 v 14.89812 c 0,0.4486 0.37777,0.80275 0.82636,0.80275 v 0 c 0.44859,0 0.80275,-0.35415 0.80275,-0.80275 v -14.89812 c 0,-0.44858 -0.35416,-0.82635 -0.80275,-0.82635 z"
           id="text1-0-4-6"
           aria-label="Soon" />
        <path
           style="font-size:23.9703px;font-family:KosanNonCommercial;-inkscape-font-specification:KosanNonCommercial;text-align:center;text-anchor:middle;opacity:0.7;fill:#f9f9f9;fill-opacity:1;stroke:#333333;stroke-width:0"
           d="m 74.25295,160.82439 c 0.407495,0.35955 0.862931,0.64719 1.390277,0.8869 0.239703,0.0959 0.599258,0.21573 0.910872,0.33558 0.407495,0.16779 0.862931,-0.0479 1.030723,-0.43146 0.167792,-0.43147 -0.04794,-0.91087 -0.479406,-1.07867 -0.119852,-0.0479 -0.263674,-0.0959 -0.383525,-0.14382 -0.407495,-0.14382 -0.79102,-0.35955 -1.126604,-0.59926 -0.311614,-0.2397 -0.575287,-0.55131 -0.76705,-0.8869 -0.191762,-0.35955 -0.311614,-0.79102 -0.311614,-1.31836 0,-0.55132 0.119852,-1.00676 0.311614,-1.41425 0.215733,-0.38353 0.479406,-0.71911 0.81499,-0.98278 0.335585,-0.26368 0.695139,-0.45544 1.126605,-0.57529 0.407495,-0.11985 0.791019,-0.19176 1.198515,-0.19176 0.767049,0 1.438218,0.14382 1.989535,0.45543 0.311613,0.19176 0.599257,0.4075 0.83896,0.6472 0.311614,0.31161 0.79102,0.33558 1.126604,0.0479 0.407495,-0.33558 0.407495,-0.93484 0,-1.27042 -0.311614,-0.26368 -0.671168,-0.50338 -1.078663,-0.71911 -0.79102,-0.4075 -1.725862,-0.59926 -2.804526,-0.59926 -0.599257,0 -1.198515,0.0719 -1.797772,0.26367 -0.623228,0.16779 -1.174545,0.43147 -1.677921,0.81499 -0.503376,0.38353 -0.886901,0.86293 -1.198515,1.43822 -0.311614,0.59926 -0.479406,1.2944 -0.479406,2.08542 0,0.76705 0.119851,1.41424 0.383525,1.94159 0.239703,0.50338 0.575287,0.95881 0.982782,1.2944 z m 8.101962,2.87643 c -0.287644,-0.55131 -0.647199,-0.98278 -1.102634,-1.34233 -0.455436,-0.35956 -0.958812,-0.6472 -1.534099,-0.86293 -0.143822,-0.0719 -0.311614,-0.11986 -0.455436,-0.19177 -0.383525,-0.14382 -0.81499,0.0479 -0.958812,0.43147 l -0.04794,0.0959 c -0.167792,0.38352 0.04794,0.83896 0.431466,0.98278 v 0 c 0.479406,0.16779 0.886901,0.38353 1.270426,0.6472 0.359554,0.26367 0.647198,0.59926 0.86293,0.98278 0.215733,0.38353 0.335585,0.86293 0.335585,1.46219 0,0.52735 -0.119852,1.00675 -0.335585,1.39028 -0.215732,0.40749 -0.503376,0.74308 -0.83896,1.03072 -0.335584,0.26367 -0.719109,0.47941 -1.150575,0.62323 -0.431465,0.11985 -0.83896,0.19176 -1.246455,0.19176 -0.862931,0 -1.60601,-0.19176 -2.229238,-0.59926 -0.383525,-0.26367 -0.719109,-0.52734 -1.006753,-0.86293 -0.287643,-0.33558 -0.81499,-0.38352 -1.150574,-0.0959 -0.431466,0.31162 -0.455436,0.91087 -0.09588,1.2944 0.119851,0.11985 0.239703,0.21573 0.383524,0.33558 0.383525,0.31162 0.79102,0.57529 1.222486,0.79102 0.431465,0.19176 0.910871,0.35956 1.390277,0.45544 0.479406,0.0959 0.982782,0.14382 1.462188,0.14382 0.623228,0 1.270426,-0.0959 1.893654,-0.28764 0.647198,-0.1678 1.198515,-0.47941 1.677921,-0.86293 0.503377,-0.4075 0.886901,-0.91088 1.198515,-1.51013 0.311614,-0.59926 0.455436,-1.31837 0.455436,-2.15733 0,-0.83896 -0.143822,-1.5341 -0.431465,-2.08542 z m 18.864628,-5.44126 c -0.43147,-1.07866 -1.00676,-1.98953 -1.749828,-2.78055 -0.767049,-0.79102 -1.653951,-1.39028 -2.684674,-1.84571 -0.671168,-0.28765 -1.366307,-0.47941 -2.133356,-0.57529 -0.431466,-0.0719 -0.838961,0.28764 -0.838961,0.74308 v 0.024 c 0,0.38352 0.287644,0.69514 0.647198,0.74308 0.647198,0.0719 1.246456,0.26367 1.797773,0.52734 0.81499,0.38353 1.510129,0.91088 2.085416,1.58204 0.599258,0.67117 1.030723,1.46219 1.342337,2.34909 0.28764,0.86294 0.455425,1.79778 0.455425,2.78056 0,0.98278 -0.167785,1.91762 -0.455425,2.78055 -0.311614,0.88691 -0.743079,1.67793 -1.342337,2.32512 -0.575287,0.67117 -1.270426,1.19852 -2.085416,1.58204 -0.838961,0.4075 -1.773802,0.59926 -2.804525,0.59926 -1.030723,0 -1.965565,-0.19176 -2.780555,-0.59926 -0.838961,-0.38352 -1.534099,-0.91087 -2.109387,-1.58204 -0.575287,-0.64719 -1.030723,-1.43821 -1.318366,-2.32512 -0.311614,-0.86293 -0.455436,-1.79777 -0.455436,-2.78055 0,-0.98278 0.143822,-1.91762 0.455436,-2.78056 0.287643,-0.8869 0.743079,-1.67792 1.318366,-2.34909 0.575288,-0.67116 1.270426,-1.19851 2.109387,-1.58204 0.551317,-0.26367 1.126604,-0.45543 1.773802,-0.52734 0.383525,-0.0479 0.647198,-0.35956 0.647198,-0.74308 v -0.024 c 0,-0.45544 -0.383525,-0.81499 -0.83896,-0.74308 -0.74308,0.0959 -1.462189,0.28764 -2.133357,0.57529 -1.030723,0.45543 -1.917624,1.05469 -2.660703,1.84571 -0.76705,0.79102 -1.342337,1.70189 -1.773803,2.78055 -0.431465,1.07867 -0.623228,2.25321 -0.623228,3.54761 0,1.27043 0.191763,2.44497 0.623228,3.52363 0.431466,1.07867 1.006753,1.98954 1.773803,2.78056 0.743079,0.79102 1.62998,1.39028 2.660703,1.84571 1.030723,0.43147 2.133357,0.6472 3.331872,0.6472 1.198515,0 2.325119,-0.21573 3.331871,-0.6472 1.030723,-0.45543 1.917625,-1.05469 2.684674,-1.84571 0.743068,-0.79102 1.318358,-1.70189 1.749828,-2.78056 0.43146,-1.07866 0.6472,-2.2532 0.6472,-3.52363 0,-1.2944 -0.21574,-2.46894 -0.6472,-3.54761 z m 19.1283,0 c -0.43146,-1.07866 -1.00675,-1.98953 -1.74983,-2.78055 -0.76705,-0.79102 -1.65395,-1.39028 -2.68467,-1.84571 -0.67117,-0.28765 -1.36631,-0.47941 -2.13336,-0.57529 -0.43146,-0.0719 -0.83896,0.28764 -0.83896,0.74308 v 0.024 c 0,0.38352 0.28765,0.69514 0.6472,0.74308 0.6472,0.0719 1.24646,0.26367 1.79777,0.52734 0.81499,0.38353 1.51013,0.91088 2.08542,1.58204 0.59926,0.67117 1.03072,1.46219 1.34234,2.34909 0.28764,0.86294 0.45543,1.79778 0.45543,2.78056 0,0.98278 -0.16779,1.91762 -0.45543,2.78055 -0.31162,0.88691 -0.74308,1.67793 -1.34234,2.32512 -0.57529,0.67117 -1.27043,1.19852 -2.08542,1.58204 -0.83896,0.4075 -1.7738,0.59926 -2.80452,0.59926 -1.03073,0 -1.96557,-0.19176 -2.78056,-0.59926 -0.83896,-0.38352 -1.5341,-0.91087 -2.10938,-1.58204 -0.57529,-0.64719 -1.03073,-1.43821 -1.31837,-2.32512 -0.31161,-0.86293 -0.45544,-1.79777 -0.45544,-2.78055 0,-0.98278 0.14383,-1.91762 0.45544,-2.78056 0.28764,-0.8869 0.74308,-1.67792 1.31837,-2.34909 0.57528,-0.67116 1.27042,-1.19851 2.10938,-1.58204 0.55132,-0.26367 1.12661,-0.45543 1.7738,-0.52734 0.38353,-0.0479 0.6472,-0.35956 0.6472,-0.74308 v -0.024 c 0,-0.45544 -0.38352,-0.81499 -0.83896,-0.74308 -0.74308,0.0959 -1.46219,0.28764 -2.13335,0.57529 -1.03073,0.45543 -1.91763,1.05469 -2.66071,1.84571 -0.76705,0.79102 -1.34233,1.70189 -1.7738,2.78055 -0.43147,1.07867 -0.62323,2.25321 -0.62323,3.54761 0,1.27043 0.19176,2.44497 0.62323,3.52363 0.43147,1.07867 1.00675,1.98954 1.7738,2.78056 0.74308,0.79102 1.62998,1.39028 2.66071,1.84571 1.03072,0.43147 2.13335,0.6472 3.33187,0.6472 1.19851,0 2.32512,-0.21573 3.33187,-0.6472 1.03072,-0.45543 1.91762,-1.05469 2.68467,-1.84571 0.74308,-0.79102 1.31837,-1.70189 1.74983,-2.78056 0.43147,-1.07866 0.6472,-2.2532 0.6472,-3.52363 0,-1.2944 -0.21573,-2.46894 -0.6472,-3.54761 z m 6.13641,-4.24274 c -0.2397,-0.38352 -0.6472,-0.62323 -1.10263,-0.62323 -0.74308,0 -1.31837,0.59926 -1.31837,1.34234 v 14.62188 c 0,0.45544 0.35955,0.81499 0.81499,0.81499 0.45544,0 0.81499,-0.35955 0.81499,-0.81499 v -13.61513 h 0.0479 l 7.55065,11.64957 c 0.45543,0.67117 1.5341,0.35955 1.5341,-0.45544 0,-0.16779 -0.048,-0.33558 -0.14383,-0.45543 z m 9.87576,-0.62323 c -0.45543,0 -0.83896,0.38353 -0.83896,0.83896 v 15.12526 c 0,0.45544 0.38353,0.81499 0.83896,0.81499 v 0 c 0.45544,0 0.81499,-0.35955 0.81499,-0.81499 v -15.12526 c 0,-0.45543 -0.35955,-0.83896 -0.81499,-0.83896 z"
           id="text1-0-4"
           aria-label="Soon" />
      </g>
    </g>
  </g>
</svg>
