<?xml version="1.0" encoding="UTF-8" standalone="no"?>
<!-- Uploaded to: SVG Repo, www.svgrepo.com, Generator: SVG Repo Mixer Tools -->

<svg
   version="1.1"
   id="Journalist"
   width="800px"
   height="800px"
   viewBox="0 0 300 300"
   xml:space="preserve"
   sodipodi:docname="host.svg"
   inkscape:version="1.3 (0e150ed6c4, 2023-07-21)"
   xmlns:inkscape="http://www.inkscape.org/namespaces/inkscape"
   xmlns:sodipodi="http://sodipodi.sourceforge.net/DTD/sodipodi-0.dtd"
   xmlns="http://www.w3.org/2000/svg"
   xmlns:svg="http://www.w3.org/2000/svg"><defs
   id="defs1" /><sodipodi:namedview
   id="namedview1"
   pagecolor="#ffffff"
   bordercolor="#000000"
   borderopacity="0.25"
   inkscape:showpageshadow="2"
   inkscape:pageopacity="0.0"
   inkscape:pagecheckerboard="0"
   inkscape:deskcolor="#d1d1d1"
   inkscape:zoom="0.97"
   inkscape:cx="400"
   inkscape:cy="400"
   inkscape:window-width="1920"
   inkscape:window-height="991"
   inkscape:window-x="-9"
   inkscape:window-y="-9"
   inkscape:window-maximized="1"
   inkscape:current-layer="Journalist" />&#10;<style
   type="text/css"
   id="style1">&#10;	.st0{fill:#010101;}&#10;</style>&#10;<path
   class="st0"
   d="M181,187h28v18h-28V187z M214.9,100h-39.7l19.8,75.6L214.9,100z M247.5,100h-26.4l-21.3,81H215v47h-40v-47h15.3  L169,100h-16.9c-12.7,0-24.7,5.9-32.4,16l-29.9,38.9L49,128.4V114c5.3-2.9,9-8.5,9-15c0-9.4-7.6-17-17-17s-17,7.6-17,17  c0,6.5,3.7,12.1,9,15v64h16v-7.8l34.2,22.2c8.2,5.3,19.2,3.5,25.1-4.3l23.9-31.1h8.8v119h105.9V157H259v101c0,9.8,7.9,18.1,17.7,18  c9.3,0,17.3-8.4,17.3-18V146C294.1,120.3,273.2,100,247.5,100z M12.5,125.7c-1.9,2.9-2.8,6.2-2.8,9.4c0,5.8,2.8,11.5,8,14.8l7.2,4.7  v-36.8C20,118.5,15.4,121.2,12.5,125.7z M157.2,53.7c0,20.2,16.3,36.5,36.5,36.5s36.5-16.3,36.5-36.5s-16.3-36.5-36.5-36.5  S157.2,33.5,157.2,53.7z"
   id="path1"
   style="fill:#6c03a8;fill-opacity:1" />&#10;</svg>
