<?xml version="1.0" encoding="UTF-8" standalone="no"?>
<!-- Uploaded to: SVG Repo, www.svgrepo.com, Generator: SVG Repo Mixer Tools -->

<svg
   version="1.1"
   id="_x32_"
   width="800px"
   height="800px"
   viewBox="0 0 512 512"
   xml:space="preserve"
   sodipodi:docname="watching.svg"
   inkscape:version="1.3 (0e150ed6c4, 2023-07-21)"
   xmlns:inkscape="http://www.inkscape.org/namespaces/inkscape"
   xmlns:sodipodi="http://sodipodi.sourceforge.net/DTD/sodipodi-0.dtd"
   xmlns="http://www.w3.org/2000/svg"
   xmlns:svg="http://www.w3.org/2000/svg"><defs
   id="defs7" /><sodipodi:namedview
   id="namedview7"
   pagecolor="#ffffff"
   bordercolor="#000000"
   borderopacity="0.25"
   inkscape:showpageshadow="2"
   inkscape:pageopacity="0.0"
   inkscape:pagecheckerboard="0"
   inkscape:deskcolor="#d1d1d1"
   inkscape:zoom="0.97"
   inkscape:cx="400"
   inkscape:cy="400"
   inkscape:window-width="1920"
   inkscape:window-height="991"
   inkscape:window-x="-9"
   inkscape:window-y="-9"
   inkscape:window-maximized="1"
   inkscape:current-layer="_x32_" />&#10;<style
   type="text/css"
   id="style1">&#10;<![CDATA[
	.st0{fill:#000000;}
]]>&#10;</style>&#10;<g
   id="g7"
   style="fill:#6c03a8;fill-opacity:1">&#10;	<path
   class="st0"
   d="M101.703,353.063c26.813,0,48.547-21.719,48.547-48.531S128.516,256,101.703,256   c-26.797,0-48.547,21.719-48.547,48.531S74.906,353.063,101.703,353.063z"
   id="path1"
   style="fill:#6c03a8;fill-opacity:1" />&#10;	<path
   class="st0"
   d="M101.703,378.953c-35.594,0-61.469,42.047-61.469,67.953c0,25.875,0,51.766,0,51.766h122.953   c0,0,0-25.891,0-51.766C163.188,421,137.297,378.953,101.703,378.953z"
   id="path2"
   style="fill:#6c03a8;fill-opacity:1" />&#10;	<path
   class="st0"
   d="M256,353.063c26.797,0,48.531-21.719,48.531-48.531S282.797,256,256,256   c-26.813,0-48.531,21.719-48.531,48.531S229.188,353.063,256,353.063z"
   id="path3"
   style="fill:#6c03a8;fill-opacity:1" />&#10;	<path
   class="st0"
   d="M256,378.953c-35.594,0-61.484,42.047-61.484,67.953c0,25.875,0,51.766,0,51.766h122.953   c0,0,0-25.891,0-51.766C317.469,421,291.594,378.953,256,378.953z"
   id="path4"
   style="fill:#6c03a8;fill-opacity:1" />&#10;	<path
   class="st0"
   d="M410.281,353.063c26.813,0,48.547-21.719,48.547-48.531S437.094,256,410.281,256s-48.531,21.719-48.531,48.531   S383.469,353.063,410.281,353.063z"
   id="path5"
   style="fill:#6c03a8;fill-opacity:1" />&#10;	<path
   class="st0"
   d="M0,13.328v285.859h37.438C40.172,266.094,67.922,240,101.703,240s61.531,26.094,64.266,59.188h25.766   C194.469,266.094,222.219,240,256,240s61.531,26.094,64.25,59.188h25.766C348.75,266.094,376.5,240,410.281,240   s61.531,26.094,64.281,59.188H512V13.328H0z"
   id="path6"
   style="fill:#6c03a8;fill-opacity:1" />&#10;	<path
   class="st0"
   d="M410.281,378.953c-35.594,0-61.469,42.047-61.469,67.953c0,25.875,0,51.766,0,51.766H471.75   c0,0,0-25.891,0-51.766C471.75,421,445.875,378.953,410.281,378.953z"
   id="path7"
   style="fill:#6c03a8;fill-opacity:1" />&#10;</g>&#10;</svg>
