<?xml version="1.0" encoding="UTF-8" standalone="no"?>
<!-- Uploaded to: SVG Repo, www.svgrepo.com, Generator: SVG Repo Mixer Tools -->

<svg
   width="800px"
   height="800px"
   viewBox="0 0 24 24"
   fill="none"
   version="1.1"
   id="svg1"
   sodipodi:docname="youtube.svg"
   xml:space="preserve"
   inkscape:version="1.3 (0e150ed6c4, 2023-07-21)"
   xmlns:inkscape="http://www.inkscape.org/namespaces/inkscape"
   xmlns:sodipodi="http://sodipodi.sourceforge.net/DTD/sodipodi-0.dtd"
   xmlns="http://www.w3.org/2000/svg"
   xmlns:svg="http://www.w3.org/2000/svg"><defs
     id="defs1" /><sodipodi:namedview
     id="namedview1"
     pagecolor="#ffffff"
     bordercolor="#000000"
     borderopacity="0.25"
     inkscape:showpageshadow="2"
     inkscape:pageopacity="0.0"
     inkscape:pagecheckerboard="0"
     inkscape:deskcolor="#d1d1d1"
     inkscape:zoom="0.97"
     inkscape:cx="400"
     inkscape:cy="400"
     inkscape:window-width="1920"
     inkscape:window-height="991"
     inkscape:window-x="-9"
     inkscape:window-y="-9"
     inkscape:window-maximized="1"
     inkscape:current-layer="svg1" /><path
     fill-rule="evenodd"
     clip-rule="evenodd"
     d="m 11.633602,10.978693 c 1.018143,-0.144237 2.246667,-0.144237 3.264805,0 0.925066,0.131047 1.641869,0.780279 1.778982,1.479595 0.165991,0.846565 0.165991,1.871029 0,2.717599 -0.137113,0.699319 -0.853916,1.348547 -1.778943,1.47961 -1.018177,0.144225 -2.246701,0.144225 -3.264844,0 -0.925027,-0.131063 -1.641825,-0.780291 -1.7789742,-1.47961 -0.1660176,-0.84657 -0.1660019,-1.871034 4e-6,-2.717595 0.1371295,-0.699324 0.8539402,-1.348552 1.7789702,-1.479599 z m 3.375046,-0.777985 c -1.091253,-0.154593 -2.393991,-0.154593 -3.485259,0 -1.184365,0.167785 -2.2253684,1.012716 -2.4398277,2.106385 -0.1855801,0.946411 -0.1856006,2.073573 3.9e-6,3.019972 0.214475,1.093689 1.2554518,1.938608 2.4398238,2.106406 1.091268,0.154597 2.394006,0.154597 3.485259,0 1.184364,-0.167798 2.225368,-1.012717 2.439839,-2.106406 0.185556,-0.946399 0.185556,-2.073561 0,-3.019968 -0.214471,-1.093677 -1.255475,-1.938604 -2.439839,-2.106389 z m -2.310465,1.71798 c -0.120574,-0.08037 -0.275564,-0.08786 -0.403311,-0.01949 -0.127744,0.06836 -0.207494,0.201494 -0.207494,0.346387 v 3.143009 c 0,0.144893 0.07975,0.278038 0.207494,0.346399 0.127747,0.06836 0.282737,0.06086 0.403311,-0.01949 l 2.357257,-1.571502 c 0.109298,-0.07288 0.174947,-0.195534 0.174947,-0.326912 0,-0.131378 -0.06565,-0.254033 -0.174947,-0.326912 z m 1.431051,1.898397 -1.256104,0.837416 v -1.674823 z"
     fill="#000000"
     id="path1"
     style="stroke-width:0.392876;fill:#6c03a8;fill-opacity:1" /><g
     style="fill:#6c03a8;fill-opacity:1"
     id="g1"
     transform="matrix(0.2946571,0,0,0.2946571,4.662413,6.9151756)"><path
       d="m 16.656,1.029 c 1.637,-0.025 3.262,-0.012 4.886,-0.025 0.054,2.031 0.878,3.859 2.189,5.213 L 23.729,6.215 C 25.14,7.486 26.976,8.31 29,8.45 l 0.028,0.002 v 5.036 c -1.912,-0.048 -3.71,-0.489 -5.331,-1.247 l 0.082,0.034 c -0.784,-0.377 -1.447,-0.764 -2.077,-1.196 l 0.052,0.034 c -0.012,3.649 0.012,7.298 -0.025,10.934 -0.103,1.853 -0.719,3.543 -1.707,4.954 l 0.02,-0.031 c -1.652,2.366 -4.328,3.919 -7.371,4.011 h -0.014 c -0.123,0.006 -0.268,0.009 -0.414,0.009 -1.73,0 -3.347,-0.482 -4.725,-1.319 l 0.04,0.023 C 5.05,28.185 3.32,25.603 3,22.6 L 2.996,22.559 c -0.025,-0.625 -0.037,-1.25 -0.012,-1.862 0.49,-4.779 4.494,-8.476 9.361,-8.476 0.547,0 1.083,0.047 1.604,0.136 l -0.056,-0.008 c 0.025,1.849 -0.05,3.699 -0.05,5.548 -0.423,-0.153 -0.911,-0.242 -1.42,-0.242 -1.868,0 -3.457,1.194 -4.045,2.861 l -0.009,0.03 c -0.133,0.427 -0.21,0.918 -0.21,1.426 0,0.206 0.013,0.41 0.037,0.61 L 8.194,22.558 c 0.332,2.046 2.086,3.59 4.201,3.59 0.061,0 0.121,-0.001 0.181,-0.004 H 12.567 C 14.03,26.1 15.3,25.313 16.018,24.15 l 0.01,-0.018 c 0.267,-0.372 0.45,-0.822 0.511,-1.311 l 10e-4,-0.014 c 0.125,-2.237 0.075,-4.461 0.087,-6.698 0.012,-5.036 -0.012,-10.06 0.025,-15.083 z"
       id="path1-8"
       style="fill:#6c03a8;fill-opacity:1" /></g></svg>
